<svg width="1085" height="623" viewBox="0 0 1085 623" fill="none" xmlns="http://www.w3.org/2000/svg">
<g filter="url(#filter0_d_191_19)">
<path d="M10.7114 536.536L1066.21 528.076C1069.81 528.047 1072.75 531.069 1072.78 534.827C1072.81 538.584 1069.92 541.654 1066.32 541.683L10.8204 550.143C7.21988 550.172 4.27678 547.149 4.24666 543.392C4.21654 539.634 7.11082 536.565 10.7114 536.536Z" fill="#F5F8FD" shape-rendering="crispEdges"/>
<path fill-rule="evenodd" clip-rule="evenodd" d="M593.398 153.299L546.05 99.2114L522.318 99.4935L521.287 18.199L507.95 9.49321L508.048 101.75L511.324 510.41L596.284 509.729L593.398 153.299Z" fill="url(#paint0_linear_191_19)" shape-rendering="crispEdges"/>
<path fill-rule="evenodd" clip-rule="evenodd" d="M593.399 153.438L545.962 99.3723L544.793 99.3511L548.086 510.116L596.284 509.729L593.399 153.438Z" fill="url(#paint1_linear_191_19)" shape-rendering="crispEdges"/>
<path fill-rule="evenodd" clip-rule="evenodd" d="M620.816 329.227L532.736 334.37L532.669 523.362L627.463 526.489L620.816 329.227Z" fill="url(#paint2_linear_191_19)" shape-rendering="crispEdges"/>
<path fill-rule="evenodd" clip-rule="evenodd" d="M578.507 330.416L532.732 333.873L532.664 522.77L580.061 524.318L578.507 330.416Z" fill="url(#paint3_linear_191_19)" shape-rendering="crispEdges"/>
<path fill-rule="evenodd" clip-rule="evenodd" d="M690.31 297.201L612.301 305.073L612.737 523.814L692.831 527.666L690.31 297.201Z" fill="url(#paint4_linear_191_19)" shape-rendering="crispEdges"/>
<path fill-rule="evenodd" clip-rule="evenodd" d="M650.982 300.919L612.299 304.805L612.734 523.495L652.781 525.436L650.982 300.919Z" fill="url(#paint5_linear_191_19)" shape-rendering="crispEdges"/>
<path fill-rule="evenodd" clip-rule="evenodd" d="M664.602 161.85L692.586 107.68L715.598 106.487L718.87 514.7L667.404 515.113L664.602 161.85Z" fill="url(#paint6_linear_191_19)" shape-rendering="crispEdges"/>
<path fill-rule="evenodd" clip-rule="evenodd" d="M664.601 161.739L692.838 107.551L693.548 107.514L696.813 514.877L667.404 515.113L664.601 161.739Z" fill="url(#paint7_linear_191_19)" shape-rendering="crispEdges"/>
<path fill-rule="evenodd" clip-rule="evenodd" d="M452.029 142.042L479.982 83.9314L502.994 82.6761L506.504 520.655L455.038 521.067L452.029 142.042Z" fill="url(#paint8_linear_191_19)" shape-rendering="crispEdges"/>
<path fill-rule="evenodd" clip-rule="evenodd" d="M452.028 141.878L480.234 83.7394L480.944 83.7031L484.447 520.831L455.038 521.067L452.028 141.878Z" fill="url(#paint9_linear_191_19)" shape-rendering="crispEdges"/>
<path fill-rule="evenodd" clip-rule="evenodd" d="M788.538 244.344L739.507 202.346L700.023 201.868L702.622 522.485L790.821 521.778L788.538 244.344Z" fill="url(#paint10_linear_191_19)" shape-rendering="crispEdges"/>
<path fill-rule="evenodd" clip-rule="evenodd" d="M788.533 243.655L739.623 201.55L738.419 201.56L740.988 522.177L790.821 521.778L788.533 243.655Z" fill="url(#paint11_linear_191_19)" shape-rendering="crispEdges"/>
<path fill-rule="evenodd" clip-rule="evenodd" d="M325.024 295.553L371.635 260.424L409.642 259.478L411.748 522.265L326.788 522.946L325.024 295.553Z" fill="url(#paint12_linear_191_19)" shape-rendering="crispEdges"/>
<path fill-rule="evenodd" clip-rule="evenodd" d="M325.025 295.734L371.721 260.632L372.887 260.623L374.986 522.559L326.788 522.946L325.025 295.734Z" fill="url(#paint13_linear_191_19)" shape-rendering="crispEdges"/>
<path fill-rule="evenodd" clip-rule="evenodd" d="M950.302 389.911C950.302 389.911 949.202 307.545 854.256 296.626L842.647 273.541L831.768 297.54C831.768 297.54 748.906 306.582 739.72 387.96L740.866 530.93L951.272 529.243L951.699 435.979L979.979 435.753C979.979 435.753 974.91 422.584 970.436 421.366C965.963 420.179 950.671 421.25 950.671 421.25L950.332 389.911L950.302 389.911Z" fill="url(#paint14_linear_191_19)" shape-rendering="crispEdges"/>
<path fill-rule="evenodd" clip-rule="evenodd" d="M854.286 296.625L842.647 273.541L831.768 297.54L854.286 296.625Z" fill="url(#paint15_linear_191_19)" shape-rendering="crispEdges"/>
<path fill-rule="evenodd" clip-rule="evenodd" d="M897.675 389.874L898.795 529.663L951.272 529.243L950.302 389.911L897.675 389.874Z" fill="url(#paint16_linear_191_19)" shape-rendering="crispEdges"/>
<path fill-rule="evenodd" clip-rule="evenodd" d="M778.444 390.096L779.562 529.641L898.435 528.688L897.673 389.599L778.444 390.096Z" fill="url(#paint17_linear_191_19)" shape-rendering="crispEdges"/>
<path fill-rule="evenodd" clip-rule="evenodd" d="M739.74 390.406L740.858 529.951L779.445 529.641L778.447 390.554L739.74 390.406Z" fill="url(#paint18_linear_191_19)" shape-rendering="crispEdges"/>
<path fill-rule="evenodd" clip-rule="evenodd" d="M740.118 437.675L740.222 450.578L951.627 448.884L951.699 435.979L740.118 437.675Z" fill="url(#paint19_linear_191_19)" shape-rendering="crispEdges"/>
<path fill-rule="evenodd" clip-rule="evenodd" d="M740.122 438.165L951.67 435.949L979.949 435.723C979.949 435.723 974.88 422.554 970.407 421.336C967.846 420.653 961.767 420.702 957.041 420.893L950.641 421.219L740 422.908L740.122 438.165Z" fill="url(#paint20_linear_191_19)" shape-rendering="crispEdges"/>
<path fill-rule="evenodd" clip-rule="evenodd" d="M331.914 445.755C331.914 445.755 331.119 390.627 259.675 383.363L250.943 367.912L242.729 383.989C242.729 383.989 180.352 390.091 173.386 444.607L174.153 540.329L332.515 539.059L332.895 476.605L354.192 476.435C354.192 476.435 350.391 467.618 347.006 466.819C343.651 466.019 332.141 466.754 332.141 466.754L331.914 445.755Z" fill="url(#paint21_linear_191_19)" shape-rendering="crispEdges"/>
<path fill-rule="evenodd" clip-rule="evenodd" d="M250.54 336.447C245.819 336.485 241.995 340.614 242.035 345.63L242.346 384.381C242.386 389.397 246.276 393.465 250.997 393.427C255.717 393.389 259.542 389.26 259.501 384.244L259.191 345.493C259.151 340.477 255.261 336.409 250.54 336.447Z" fill="url(#paint22_linear_191_19)" shape-rendering="crispEdges"/>
<path fill-rule="evenodd" clip-rule="evenodd" d="M291.857 445.831L292.607 539.38L332.517 539.06L331.888 445.785L291.857 445.831Z" fill="url(#paint23_linear_191_19)" shape-rendering="crispEdges"/>
<path fill-rule="evenodd" clip-rule="evenodd" d="M201.996 446.551L202.739 539.249L292.335 538.531L291.859 446.134L201.996 446.551Z" fill="url(#paint24_linear_191_19)" shape-rendering="crispEdges"/>
<path fill-rule="evenodd" clip-rule="evenodd" d="M173.403 446.78L174.146 539.479L202.652 539.25L201.998 446.855L173.403 446.78Z" fill="url(#paint25_linear_191_19)" shape-rendering="crispEdges"/>
<path fill-rule="evenodd" clip-rule="evenodd" d="M960.328 510.204C960.328 510.204 550.143 487.62 467.272 502.031C384.4 516.473 108.448 514.828 64.6443 536.09L64.7194 545.458L1039.28 534.34C1039.28 534.34 1005.76 512.503 960.358 510.204L960.328 510.204Z" fill="#113782" shape-rendering="crispEdges"/>
<path fill-rule="evenodd" clip-rule="evenodd" d="M853.085 526.664C853.085 526.664 849.013 502.483 823.132 505.705C797.25 508.928 777.645 485.364 777.645 485.364C777.645 485.364 746.571 452.784 711.042 476.298C675.483 499.812 664.481 483.225 664.481 483.225C664.481 483.225 654.581 475.735 641.536 497.285C628.49 518.834 628.043 492.347 619.795 496.69C611.546 501.032 579.926 528.545 601.17 529.39C622.413 530.235 868.406 532.54 853.084 526.602L853.085 526.664Z" fill="url(#paint26_linear_191_19)" shape-rendering="crispEdges"/>
<path fill-rule="evenodd" clip-rule="evenodd" d="M173.655 478.246L173.724 486.751L332.877 485.475L332.955 476.969L173.655 478.246Z" fill="url(#paint27_linear_191_19)" shape-rendering="crispEdges"/>
<path fill-rule="evenodd" clip-rule="evenodd" d="M173.605 468.267L173.685 478.246L332.899 476.64L354.193 476.469C354.193 476.469 350.393 467.839 347.009 467.057C345.097 466.623 340.515 466.66 336.932 466.778L332.117 466.997L173.575 468.268L173.605 468.267Z" fill="url(#paint28_linear_191_19)" shape-rendering="crispEdges"/>
<path d="M166.911 555.696L933.209 549.554C936.812 549.525 939.757 552.547 939.787 556.305C939.817 560.062 936.921 563.132 933.318 563.161L167.02 569.303C163.418 569.332 160.473 566.309 160.442 562.552C160.412 558.794 163.309 555.725 166.911 555.696Z" fill="url(#paint29_linear_191_19)" shape-rendering="crispEdges"/>
<path d="M206.321 580.044L897.463 574.504C901.065 574.476 904.01 577.498 904.04 581.256C904.07 585.013 901.174 588.083 897.572 588.112L206.43 593.651C202.827 593.68 199.883 590.657 199.852 586.9C199.822 583.142 202.718 580.073 206.321 580.044Z" fill="url(#paint30_linear_191_19)" shape-rendering="crispEdges"/>
<path d="M340.488 602.783L766.128 599.371C769.731 599.343 772.676 602.365 772.706 606.123C772.736 609.88 769.84 612.95 766.237 612.978L340.597 616.39C336.994 616.419 334.049 613.396 334.019 609.639C333.989 605.881 336.885 602.812 340.488 602.783Z" fill="url(#paint31_linear_191_19)" fill-opacity="0.2" shape-rendering="crispEdges"/>
</g>
<defs>
<filter id="filter0_d_191_19" x="-16.2537" y="-23.0068" width="1109.54" height="647.897" filterUnits="userSpaceOnUse" color-interpolation-filters="sRGB">
<feFlood flood-opacity="0" result="BackgroundImageFix"/>
<feColorMatrix in="SourceAlpha" type="matrix" values="0 0 0 0 0 0 0 0 0 0 0 0 0 0 0 0 0 0 127 0" result="hardAlpha"/>
<feOffset dy="-12"/>
<feGaussianBlur stdDeviation="10.25"/>
<feComposite in2="hardAlpha" operator="out"/>
<feColorMatrix type="matrix" values="0 0 0 0 1 0 0 0 0 1 0 0 0 0 1 0 0 0 0.25 0"/>
<feBlend mode="normal" in2="BackgroundImageFix" result="effect1_dropShadow_191_19"/>
<feBlend mode="normal" in="SourceGraphic" in2="effect1_dropShadow_191_19" result="shape"/>
</filter>
<linearGradient id="paint0_linear_191_19" x1="515.757" y1="78.897" x2="519.525" y2="516.468" gradientUnits="userSpaceOnUse">
<stop stop-color="#FDFDFE"/>
<stop offset="0.24" stop-color="#D6E1F1"/>
<stop offset="0.76" stop-color="#88A9D6"/>
<stop offset="1" stop-color="#6993CC"/>
</linearGradient>
<linearGradient id="paint1_linear_191_19" x1="546.783" y1="601.075" x2="541.956" y2="10.6605" gradientUnits="userSpaceOnUse">
<stop stop-color="#023691"/>
<stop offset="0.26" stop-color="#043892"/>
<stop offset="0.45" stop-color="#0E3E96"/>
<stop offset="0.62" stop-color="#1D4A9D"/>
<stop offset="0.77" stop-color="#345AA7"/>
<stop offset="0.91" stop-color="#506EB4"/>
<stop offset="1" stop-color="#667EBE"/>
</linearGradient>
<linearGradient id="paint2_linear_191_19" x1="537.953" y1="592.641" x2="530.354" y2="38.0399" gradientUnits="userSpaceOnUse">
<stop stop-color="#121C3D"/>
<stop offset="1" stop-color="#255DAB"/>
</linearGradient>
<linearGradient id="paint3_linear_191_19" x1="585.984" y1="611.271" x2="579.571" y2="40.5487" gradientUnits="userSpaceOnUse">
<stop stop-color="#6993CC"/>
<stop offset="1" stop-color="white"/>
</linearGradient>
<linearGradient id="paint4_linear_191_19" x1="573.127" y1="592.194" x2="565.527" y2="37.8662" gradientUnits="userSpaceOnUse">
<stop stop-color="#6993CC"/>
<stop offset="1" stop-color="white"/>
</linearGradient>
<linearGradient id="paint5_linear_191_19" x1="626.25" y1="610.803" x2="619.849" y2="40.1474" gradientUnits="userSpaceOnUse">
<stop stop-color="#023691"/>
<stop offset="1" stop-color="#667EBE"/>
</linearGradient>
<linearGradient id="paint6_linear_191_19" x1="564.962" y1="78.4913" x2="568.206" y2="516.079" gradientUnits="userSpaceOnUse">
<stop stop-color="#FDFDFE"/>
<stop offset="0.24" stop-color="#D6E1F1"/>
<stop offset="0.76" stop-color="#88A9D6"/>
<stop offset="1" stop-color="#6993CC"/>
</linearGradient>
<linearGradient id="paint7_linear_191_19" x1="517.511" y1="601.293" x2="512.871" y2="10.8545" gradientUnits="userSpaceOnUse">
<stop stop-color="#023691"/>
<stop offset="0.26" stop-color="#043892"/>
<stop offset="0.45" stop-color="#0E3E96"/>
<stop offset="0.62" stop-color="#1D4A9D"/>
<stop offset="0.77" stop-color="#345AA7"/>
<stop offset="0.91" stop-color="#506EB4"/>
<stop offset="1" stop-color="#667EBE"/>
</linearGradient>
<linearGradient id="paint8_linear_191_19" x1="569.224" y1="78.4574" x2="572.47" y2="516.049" gradientUnits="userSpaceOnUse">
<stop stop-color="#FDFDFE"/>
<stop offset="0.24" stop-color="#D6E1F1"/>
<stop offset="0.76" stop-color="#88A9D6"/>
<stop offset="1" stop-color="#6993CC"/>
</linearGradient>
<linearGradient id="paint9_linear_191_19" x1="514.286" y1="601.303" x2="509.648" y2="10.9117" gradientUnits="userSpaceOnUse">
<stop stop-color="#023691"/>
<stop offset="0.26" stop-color="#043892"/>
<stop offset="0.45" stop-color="#0E3E96"/>
<stop offset="0.62" stop-color="#1D4A9D"/>
<stop offset="0.77" stop-color="#345AA7"/>
<stop offset="0.91" stop-color="#506EB4"/>
<stop offset="1" stop-color="#667EBE"/>
</linearGradient>
<linearGradient id="paint10_linear_191_19" x1="559.513" y1="467.677" x2="553.381" y2="-4.58002" gradientUnits="userSpaceOnUse">
<stop stop-color="#121C3D"/>
<stop offset="0.23" stop-color="#121D40"/>
<stop offset="0.41" stop-color="#14234A"/>
<stop offset="0.58" stop-color="#172D5B"/>
<stop offset="0.74" stop-color="#1B3B72"/>
<stop offset="0.9" stop-color="#204D91"/>
<stop offset="1" stop-color="#255DAB"/>
</linearGradient>
<linearGradient id="paint11_linear_191_19" x1="533.894" y1="316.2" x2="531.189" y2="-1.98547" gradientUnits="userSpaceOnUse">
<stop stop-color="#6993CC"/>
<stop offset="0.16" stop-color="#7BA0D2"/>
<stop offset="0.5" stop-color="#ABC2E2"/>
<stop offset="0.96" stop-color="#F8FAFC"/>
<stop offset="1" stop-color="white"/>
</linearGradient>
<linearGradient id="paint12_linear_191_19" x1="522.752" y1="467.992" x2="521.321" y2="-4.36098" gradientUnits="userSpaceOnUse">
<stop stop-color="#121C3D"/>
<stop offset="0.23" stop-color="#121D40"/>
<stop offset="0.41" stop-color="#14234A"/>
<stop offset="0.58" stop-color="#172D5B"/>
<stop offset="0.74" stop-color="#1B3B72"/>
<stop offset="0.9" stop-color="#204D91"/>
<stop offset="1" stop-color="#255DAB"/>
</linearGradient>
<linearGradient id="paint13_linear_191_19" x1="538.99" y1="316.114" x2="536.593" y2="-2.02969" gradientUnits="userSpaceOnUse">
<stop stop-color="#6993CC"/>
<stop offset="0.16" stop-color="#7BA0D2"/>
<stop offset="0.5" stop-color="#ABC2E2"/>
<stop offset="0.96" stop-color="#F8FAFC"/>
<stop offset="1" stop-color="white"/>
</linearGradient>
<linearGradient id="paint14_linear_191_19" x1="115.469" y1="464.117" x2="429.95" y2="198.466" gradientUnits="userSpaceOnUse">
<stop stop-color="#7895CC"/>
<stop offset="1" stop-color="white"/>
</linearGradient>
<linearGradient id="paint15_linear_191_19" x1="526.1" y1="467.773" x2="505.435" y2="-174.848" gradientUnits="userSpaceOnUse">
<stop stop-color="#213987"/>
<stop offset="1" stop-color="#000512"/>
</linearGradient>
<linearGradient id="paint16_linear_191_19" x1="470.041" y1="328.866" x2="564.304" y2="-169.716" gradientUnits="userSpaceOnUse">
<stop stop-color="#7484BB"/>
<stop offset="0.15" stop-color="#7888BD"/>
<stop offset="0.33" stop-color="#8694C4"/>
<stop offset="0.51" stop-color="#9DA8CF"/>
<stop offset="0.7" stop-color="#BDC4DE"/>
<stop offset="0.9" stop-color="#E5E8F2"/>
<stop offset="1" stop-color="white"/>
</linearGradient>
<linearGradient id="paint17_linear_191_19" x1="542.044" y1="224.163" x2="548.142" y2="-193.395" gradientUnits="userSpaceOnUse">
<stop stop-color="#183994"/>
<stop offset="1" stop-color="white"/>
</linearGradient>
<linearGradient id="paint18_linear_191_19" x1="443.547" y1="424.637" x2="451.107" y2="-107.432" gradientUnits="userSpaceOnUse">
<stop stop-color="#060E2B"/>
<stop offset="0.14" stop-color="#09112E"/>
<stop offset="0.26" stop-color="#151C37"/>
<stop offset="0.39" stop-color="#282E48"/>
<stop offset="0.51" stop-color="#42485E"/>
<stop offset="0.63" stop-color="#656A7C"/>
<stop offset="0.75" stop-color="#8F93A0"/>
<stop offset="0.87" stop-color="#C1C3CA"/>
<stop offset="0.99" stop-color="#FAFAFA"/>
<stop offset="1" stop-color="white"/>
</linearGradient>
<linearGradient id="paint19_linear_191_19" x1="536.799" y1="426.837" x2="1269.09" y2="-2092.88" gradientUnits="userSpaceOnUse">
<stop stop-color="#040C24"/>
<stop offset="1" stop-color="white"/>
</linearGradient>
<linearGradient id="paint20_linear_191_19" x1="-46.0028" y1="281.537" x2="1169.27" y2="272.792" gradientUnits="userSpaceOnUse">
<stop stop-color="#ECF0F6"/>
<stop offset="1" stop-color="#7484BB"/>
</linearGradient>
<linearGradient id="paint21_linear_191_19" x1="141.739" y1="495.19" x2="456.282" y2="229.562" gradientUnits="userSpaceOnUse">
<stop stop-color="#7895CC"/>
<stop offset="1" stop-color="white"/>
</linearGradient>
<linearGradient id="paint22_linear_191_19" x1="499.333" y1="124.628" x2="506.675" y2="635.817" gradientUnits="userSpaceOnUse">
<stop stop-color="#7895CC"/>
<stop offset="1" stop-color="white"/>
</linearGradient>
<linearGradient id="paint23_linear_191_19" x1="477.827" y1="330.439" x2="572.276" y2="-168.389" gradientUnits="userSpaceOnUse">
<stop stop-color="#7484BB"/>
<stop offset="0.15" stop-color="#7888BD"/>
<stop offset="0.33" stop-color="#8694C4"/>
<stop offset="0.51" stop-color="#9DA8CF"/>
<stop offset="0.7" stop-color="#BDC4DE"/>
<stop offset="0.9" stop-color="#E5E8F2"/>
<stop offset="1" stop-color="white"/>
</linearGradient>
<linearGradient id="paint24_linear_191_19" x1="540.363" y1="224.242" x2="546.473" y2="-193.383" gradientUnits="userSpaceOnUse">
<stop stop-color="#183994"/>
<stop offset="1" stop-color="white"/>
</linearGradient>
<linearGradient id="paint25_linear_191_19" x1="462.194" y1="425.002" x2="469.781" y2="-107.104" gradientUnits="userSpaceOnUse">
<stop stop-color="#060E2B"/>
<stop offset="0.14" stop-color="#09112E"/>
<stop offset="0.26" stop-color="#151C37"/>
<stop offset="0.39" stop-color="#282E48"/>
<stop offset="0.51" stop-color="#42485E"/>
<stop offset="0.63" stop-color="#656A7C"/>
<stop offset="0.75" stop-color="#8F93A0"/>
<stop offset="0.87" stop-color="#C1C3CA"/>
<stop offset="0.99" stop-color="#FAFAFA"/>
<stop offset="1" stop-color="white"/>
</linearGradient>
<linearGradient id="paint26_linear_191_19" x1="537.833" y1="528.246" x2="495.308" y2="79.0603" gradientUnits="userSpaceOnUse">
<stop stop-color="#18583E"/>
<stop offset="0.11" stop-color="#276243"/>
<stop offset="0.33" stop-color="#4F7F50"/>
<stop offset="0.64" stop-color="#90AD66"/>
<stop offset="1" stop-color="#E6EA83"/>
</linearGradient>
<linearGradient id="paint27_linear_191_19" x1="536.835" y1="427.997" x2="1268.84" y2="-2092.84" gradientUnits="userSpaceOnUse">
<stop stop-color="#040C24"/>
<stop offset="1" stop-color="white"/>
</linearGradient>
<linearGradient id="paint28_linear_191_19" x1="-45.9171" y1="270.985" x2="1169.07" y2="262.232" gradientUnits="userSpaceOnUse">
<stop stop-color="#ECF0F6"/>
<stop offset="1" stop-color="#7484BB"/>
</linearGradient>
<linearGradient id="paint29_linear_191_19" x1="522.908" y1="-1267.2" x2="2296.83" y2="845.059" gradientUnits="userSpaceOnUse">
<stop stop-color="#F5F8FD"/>
<stop offset="1" stop-color="#627ABB"/>
</linearGradient>
<linearGradient id="paint30_linear_191_19" x1="513.239" y1="-2350.03" x2="2245.94" y2="-69.511" gradientUnits="userSpaceOnUse">
<stop stop-color="#F5F8FD"/>
<stop offset="1" stop-color="#627ABB"/>
</linearGradient>
<linearGradient id="paint31_linear_191_19" x1="550.739" y1="524.446" x2="553.427" y2="604.474" gradientUnits="userSpaceOnUse">
<stop stop-color="#F5F8FD"/>
<stop offset="1" stop-color="#627ABB"/>
</linearGradient>
</defs>
</svg>
