<svg width="684" height="689" viewBox="0 0 684 689" fill="none" xmlns="http://www.w3.org/2000/svg">
<rect x="146.422" y="187.297" width="408" height="449" rx="32" fill="url(#paint0_linear_245_10)"/>
<path d="M355.897 272.17C369.156 273.096 382.042 275.723 394.442 279.881L370.117 407.071L370.116 407.07L345.87 533.846L464.436 324.156C485.32 344.86 502.975 370.844 516.327 400.523L346.367 534.578L542.21 497.35C544.028 514.116 544.645 531.361 543.945 548.918C543.786 552.901 543.561 556.859 543.271 560.79L389.221 550.025L346.325 535.64L358.682 547.891L350.737 547.336L345.772 536.299L346.94 547.07L344.947 546.931L345.387 535.874C345.493 535.881 345.572 535.881 345.625 535.88C345.683 535.831 345.758 535.759 345.84 535.662C345.921 535.565 345.983 535.473 346.026 535.402C346.033 535.332 346.041 535.229 346.047 535.089C346.052 534.948 346.052 534.844 346.051 534.773C346.014 534.697 345.959 534.597 345.886 534.489C345.813 534.382 345.744 534.299 345.69 534.242C345.637 534.234 345.559 534.223 345.453 534.216C345.347 534.208 345.269 534.208 345.215 534.209C345.157 534.258 345.082 534.331 345.001 534.428C344.92 534.524 344.857 534.616 344.814 534.687C344.808 534.757 344.8 534.861 344.794 535.001C344.788 535.141 344.788 535.245 344.789 535.316C344.826 535.393 344.881 535.492 344.954 535.6C345.027 535.708 345.096 535.79 345.15 535.847C345.203 535.856 345.281 535.867 345.387 535.874L344.947 546.931L342.953 546.792L344.97 536.243L339.156 546.526L331.211 545.971L344.473 535.511L300.672 543.837L146.622 533.072C146.647 529.123 146.737 525.155 146.896 521.172C147.574 504.158 149.457 487.608 152.431 471.657L152.719 470.133L344.515 534.449L186.156 377.451C201.792 349.797 221.415 326.419 243.829 308.74L345.068 533.79L316.953 274.466C329.615 272.059 342.639 271.243 355.897 272.17Z" fill="url(#paint1_radial_245_10)"/>
<path d="M459.237 417.583C458.647 417.239 458.919 416.063 459.553 416.214L464.874 417.484C471.745 419.123 478.569 414.314 481.381 405.852L483.558 399.298C483.817 398.517 484.706 398.876 484.591 399.716L483.633 406.762C482.395 415.86 486.027 424.896 492.418 428.619L497.367 431.502C497.957 431.845 497.686 433.022 497.051 432.87L491.73 431.601C484.859 429.962 478.035 434.771 475.224 443.233L473.046 449.787C472.787 450.568 471.899 450.209 472.013 449.369L472.971 442.323C474.209 433.225 470.577 424.188 464.187 420.466L459.237 417.583Z" fill="white"/>
<path d="M249.337 375.489C248.97 375.533 248.849 374.803 249.196 374.639L252.11 373.262C255.873 371.484 258.209 366.296 257.76 360.713L257.412 356.388C257.371 355.873 257.89 355.721 258.016 356.212L259.075 360.328C260.443 365.643 264.211 369.048 268.189 368.563L271.27 368.188C271.638 368.143 271.759 368.873 271.412 369.038L268.498 370.414C264.735 372.192 262.399 377.381 262.848 382.964L263.195 387.288C263.237 387.804 262.718 387.955 262.592 387.465L261.533 383.348C260.165 378.033 256.397 374.629 252.419 375.113L249.337 375.489Z" fill="white"/>
<path d="M271.286 294.795C270.872 294.992 270.567 294.197 270.932 293.87L273.986 291.13C277.931 287.592 279.46 280.68 277.685 274.41L276.31 269.555C276.146 268.976 276.711 268.596 276.967 269.113L279.117 273.448C281.892 279.045 287.009 281.489 291.494 279.359L294.967 277.71C295.381 277.513 295.686 278.308 295.321 278.634L292.267 281.374C288.322 284.912 286.793 291.825 288.568 298.094L289.943 302.95C290.107 303.529 289.542 303.908 289.286 303.391L287.136 299.057C284.361 293.46 279.244 291.016 274.759 293.146L271.286 294.795Z" fill="url(#paint2_linear_245_10)"/>
<path d="M396.465 293.564C396.052 293.276 396.304 292.39 396.759 292.533L400.57 293.741C405.492 295.301 410.68 291.935 413.12 285.599L415.009 280.692C415.235 280.107 415.864 280.421 415.742 281.058L414.716 286.395C413.391 293.287 415.611 300.35 420.085 303.48L423.551 305.903C423.964 306.192 423.712 307.078 423.258 306.934L419.446 305.726C414.525 304.167 409.336 307.533 406.896 313.869L405.007 318.775C404.782 319.36 404.152 319.046 404.275 318.41L405.301 313.072C406.626 306.18 404.406 299.117 399.931 295.988L396.465 293.564Z" fill="url(#paint3_linear_245_10)"/>
<path d="M341.434 313.749C341.135 313.67 341.169 313.055 341.473 313.033L344.022 312.85C347.315 312.614 350.084 309.236 350.719 304.679L351.211 301.15C351.27 300.729 351.707 300.77 351.72 301.198L351.827 304.784C351.966 309.414 354.343 313.28 357.577 314.134L360.081 314.796C360.38 314.875 360.347 315.49 360.043 315.512L357.493 315.694C354.2 315.93 351.432 319.309 350.796 323.866L350.304 327.395C350.246 327.816 349.808 327.774 349.796 327.347L349.688 323.761C349.549 319.13 347.172 315.265 343.938 314.41L341.434 313.749Z" fill="white"/>
<g filter="url(#filter0_d_245_10)">
<path fill-rule="evenodd" clip-rule="evenodd" d="M333.326 405.57C333.326 405.57 353.208 363.804 392.339 384.773C431.471 405.733 336.814 565.218 336.814 565.218C336.814 565.218 253.995 507.196 250.158 437.669C246.321 368.142 313.582 364.669 328.334 395.691L333.326 405.57Z" fill="url(#paint4_linear_245_10)"/>
<path fill-rule="evenodd" clip-rule="evenodd" d="M268.128 386.602C288.192 370.163 318.93 375.915 328.334 395.692L333.326 405.571C316.801 375.569 297.813 372.317 268.128 386.602Z" fill="white"/>
<path fill-rule="evenodd" clip-rule="evenodd" d="M333.326 405.57C333.326 405.57 334.634 402.838 337.221 399.115C337.984 409.754 339.037 429.079 337.01 433.773L333.326 405.57Z" fill="#C21925"/>
<path fill-rule="evenodd" clip-rule="evenodd" d="M341.886 556.426C339.19 561.187 337.417 564.208 336.952 564.987C299.484 531.628 251.277 476.751 251.575 415.766C252.832 409.686 254.794 404.377 257.294 399.808C261.719 480.252 311.925 532.311 341.886 556.426Z" fill="#C21925"/>
<path fill-rule="evenodd" clip-rule="evenodd" d="M389.832 387.139L395.609 383.012C395.609 383.012 451.36 397.162 421.355 482.416C421.355 482.416 396.852 529.261 340.033 564.929C340.033 564.929 339.357 565.487 336.807 565.227L337.926 489.842C337.926 489.842 370.866 459.292 371.229 448.518C371.593 437.735 369.783 433.07 376.934 432.464C384.084 431.868 388.967 431.031 389.512 423.72C390.057 416.41 389.832 387.148 389.832 387.148V387.139Z" fill="url(#paint5_linear_245_10)"/>
<path fill-rule="evenodd" clip-rule="evenodd" d="M408.777 389.708C423.1 400.135 441.448 425.337 421.37 482.417C421.37 482.417 396.867 529.262 340.048 564.93C340.048 564.93 339.372 565.488 336.821 565.228L336.908 559.543C353.353 555.994 383.103 530.407 410.39 494.277C443.89 449.933 421.123 406.609 408.777 389.718V389.708Z" fill="#3A8FCE"/>
<path fill-rule="evenodd" clip-rule="evenodd" d="M290.14 395.046C298.685 390.304 307.006 390.862 308.735 396.307C310.458 401.751 304.935 410.004 296.389 414.756C287.843 419.498 279.523 418.94 277.794 413.496C276.071 408.052 281.594 399.798 290.14 395.046Z" fill="url(#paint6_linear_245_10)"/>
<path d="M344.161 561.467L343.652 498.711" stroke="white" stroke-width="3.84" stroke-linecap="round" stroke-linejoin="round"/>
<path d="M355.17 552.597V480.55L403.443 480.136L415.128 466.92L414.452 413.659" stroke="white" stroke-width="3.84" stroke-linecap="round" stroke-linejoin="round"/>
<path d="M365.67 545.162L365.336 493.142L396.67 492.103" stroke="white" stroke-width="3.84" stroke-linecap="round" stroke-linejoin="round"/>
<path d="M376.68 536.284L376.171 503.05H394.803" stroke="white" stroke-width="3.84" stroke-linecap="round" stroke-linejoin="round"/>
<path d="M322.992 477.655L329.598 486.947L330.106 509.86" stroke="white" stroke-width="3.84" stroke-linecap="round" stroke-linejoin="round"/>
<path d="M357.546 433.07L348.905 442.15L340.432 431.618L340.941 400.24L350.09 391.987L359.915 401.481L359.406 452.885L329.598 486.947" stroke="white" stroke-width="3.84" stroke-linecap="round" stroke-linejoin="round"/>
<path d="M404.46 394.873L404.119 460.937L399.039 467.545L363.301 468.988L355.17 480.55" stroke="white" stroke-width="3.84" stroke-linecap="round" stroke-linejoin="round"/>
<path d="M372.959 422.124L374.223 468.546" stroke="white" stroke-width="3.84" stroke-linecap="round" stroke-linejoin="round"/>
<path d="M394.636 420.883L394.127 446.278L381.592 447.105" stroke="white" stroke-width="3.84" stroke-linecap="round" stroke-linejoin="round"/>
<path fill-rule="evenodd" clip-rule="evenodd" d="M320.195 479.859C323.48 479.859 326.161 476.588 326.161 472.587C326.161 468.585 323.48 465.314 320.195 465.314C316.91 465.314 314.229 468.585 314.229 472.587C314.229 476.588 316.91 479.859 320.195 479.859Z" fill="white"/>
<path fill-rule="evenodd" clip-rule="evenodd" d="M330.019 524.452C333.304 524.452 335.985 521.182 335.985 517.18C335.985 513.179 333.304 509.908 330.019 509.908C326.735 509.908 324.053 513.179 324.053 517.18C324.053 521.182 326.735 524.452 330.019 524.452Z" fill="white"/>
<path fill-rule="evenodd" clip-rule="evenodd" d="M338.826 502.935C340.505 502.935 341.878 501.262 341.878 499.222C341.878 497.183 340.512 495.509 338.826 495.509C337.141 495.509 335.774 497.183 335.774 499.222C335.774 501.262 337.141 502.935 338.826 502.935Z" fill="white"/>
<path fill-rule="evenodd" clip-rule="evenodd" d="M343.23 497.768C344.909 497.768 346.282 496.095 346.282 494.055C346.282 492.016 344.916 490.342 343.23 490.342C341.544 490.342 340.178 492.016 340.178 494.055C340.178 496.095 341.544 497.768 343.23 497.768Z" fill="white"/>
<path fill-rule="evenodd" clip-rule="evenodd" d="M398.61 510.774C402.156 510.774 405.049 507.253 405.049 502.924C405.049 498.596 402.156 495.075 398.61 495.075C395.064 495.075 392.172 498.596 392.172 502.924C392.172 507.253 395.064 510.774 398.61 510.774Z" fill="white"/>
<path fill-rule="evenodd" clip-rule="evenodd" d="M428.761 455.656C431.558 455.656 433.84 452.876 433.84 449.461C433.84 446.047 431.558 443.267 428.761 443.267C425.963 443.267 423.681 446.047 423.681 449.461C423.681 452.876 425.963 455.656 428.761 455.656Z" fill="white"/>
<path fill-rule="evenodd" clip-rule="evenodd" d="M417.751 469.844C419.684 469.844 421.26 467.92 421.26 465.564C421.26 463.207 419.684 461.283 417.751 461.283C415.818 461.283 414.241 463.207 414.241 465.564C414.241 467.92 415.818 469.844 417.751 469.844Z" fill="white"/>
<path fill-rule="evenodd" clip-rule="evenodd" d="M415.549 417.671C419.095 417.671 421.988 414.15 421.988 409.821C421.988 405.493 419.095 401.972 415.549 401.972C412.003 401.972 409.111 405.493 409.111 409.821C409.111 414.15 412.003 417.671 415.549 417.671Z" fill="white"/>
<path fill-rule="evenodd" clip-rule="evenodd" d="M403.697 399.095C407.243 399.095 410.135 395.575 410.135 391.246C410.135 386.918 407.243 383.397 403.697 383.397C400.151 383.397 397.259 386.918 397.259 391.246C397.259 395.575 400.151 399.095 403.697 399.095Z" fill="white"/>
<path fill-rule="evenodd" clip-rule="evenodd" d="M394.206 422.269C396.379 422.269 398.145 420.114 398.145 417.469C398.145 414.824 396.372 412.669 394.206 412.669C392.041 412.669 390.268 414.824 390.268 417.469C390.268 420.114 392.041 422.269 394.206 422.269Z" fill="white"/>
<path fill-rule="evenodd" clip-rule="evenodd" d="M378.968 450.288C381.672 450.288 383.881 447.595 383.881 444.305C383.881 441.016 381.672 438.322 378.968 438.322C376.265 438.322 374.056 441.016 374.056 444.305C374.056 447.595 376.265 450.288 378.968 450.288Z" fill="white"/>
<path fill-rule="evenodd" clip-rule="evenodd" d="M372.959 428.117C375.662 428.117 377.871 425.424 377.871 422.134C377.871 418.844 375.662 416.151 372.959 416.151C370.255 416.151 368.046 418.844 368.046 422.134C368.046 425.424 370.255 428.117 372.959 428.117Z" fill="white"/>
<path fill-rule="evenodd" clip-rule="evenodd" d="M362.706 420.354C364.944 420.354 366.768 418.132 366.768 415.4C366.768 412.668 364.944 410.446 362.706 410.446C360.468 410.446 358.644 412.668 358.644 415.4C358.644 418.132 360.468 420.354 362.706 420.354Z" fill="white"/>
<path fill-rule="evenodd" clip-rule="evenodd" d="M348.906 447.105C351.144 447.105 352.968 444.883 352.968 442.151C352.968 439.419 351.144 437.197 348.906 437.197C346.668 437.197 344.844 439.419 344.844 442.151C344.844 444.883 346.668 447.105 348.906 447.105Z" fill="white"/>
<path fill-rule="evenodd" clip-rule="evenodd" d="M350.09 398.702C353.12 398.702 355.598 395.691 355.598 391.988C355.598 388.284 353.128 385.273 350.09 385.273C347.053 385.273 344.582 388.284 344.582 391.988C344.582 395.691 347.053 398.702 350.09 398.702Z" fill="white"/>
</g>
<defs>
<filter id="filter0_d_245_10" x="0" y="0" width="683.84" height="688.297" filterUnits="userSpaceOnUse" color-interpolation-filters="sRGB">
<feFlood flood-opacity="0" result="BackgroundImageFix"/>
<feColorMatrix in="SourceAlpha" type="matrix" values="0 0 0 0 0 0 0 0 0 0 0 0 0 0 0 0 0 0 127 0" result="hardAlpha"/>
<feOffset dy="-127"/>
<feGaussianBlur stdDeviation="125"/>
<feComposite in2="hardAlpha" operator="out"/>
<feColorMatrix type="matrix" values="0 0 0 0 1 0 0 0 0 1 0 0 0 0 1 0 0 0 0.25 0"/>
<feBlend mode="normal" in2="BackgroundImageFix" result="effect1_dropShadow_245_10"/>
<feBlend mode="normal" in="SourceGraphic" in2="effect1_dropShadow_245_10" result="shape"/>
</filter>
<linearGradient id="paint0_linear_245_10" x1="350.422" y1="275.736" x2="350.422" y2="708.215" gradientUnits="userSpaceOnUse">
<stop stop-color="#0B0E14"/>
<stop offset="1" stop-color="#4F46E5"/>
</linearGradient>
<radialGradient id="paint1_radial_245_10" cx="0" cy="0" r="1" gradientTransform="matrix(-6.79064 151.363 -218.731 -17.2055 350.422 409.55)" gradientUnits="userSpaceOnUse">
<stop stop-color="#00F5D4"/>
<stop offset="1" stop-color="#737373" stop-opacity="0"/>
</radialGradient>
<linearGradient id="paint2_linear_245_10" x1="288.986" y1="300.672" x2="272.81" y2="275.769" gradientUnits="userSpaceOnUse">
<stop stop-color="white"/>
<stop offset="1" stop-color="#0B0E14"/>
</linearGradient>
<linearGradient id="paint3_linear_245_10" x1="406.335" y1="318.327" x2="419.852" y2="290.667" gradientUnits="userSpaceOnUse">
<stop stop-color="white"/>
<stop offset="1" stop-color="#0B0E14"/>
</linearGradient>
<linearGradient id="paint4_linear_245_10" x1="321.183" y1="515.314" x2="331.82" y2="391.214" gradientUnits="userSpaceOnUse">
<stop stop-color="#CF141C"/>
<stop offset="1" stop-color="#E94F5A"/>
</linearGradient>
<linearGradient id="paint5_linear_245_10" x1="366.164" y1="547.499" x2="426.041" y2="398.766" gradientUnits="userSpaceOnUse">
<stop stop-color="#143377"/>
<stop offset="0.28" stop-color="#153579"/>
<stop offset="0.48" stop-color="#183E82"/>
<stop offset="0.64" stop-color="#1F4D90"/>
<stop offset="0.79" stop-color="#2863A4"/>
<stop offset="0.93" stop-color="#337FBE"/>
<stop offset="1" stop-color="#3A8FCE"/>
</linearGradient>
<linearGradient id="paint6_linear_245_10" x1="274.444" y1="434.687" x2="311.203" y2="401.489" gradientUnits="userSpaceOnUse">
<stop stop-color="#E94F5A"/>
<stop offset="1" stop-color="white"/>
</linearGradient>
</defs>
</svg>
