<svg width="428" height="401" viewBox="0 0 428 401" fill="none" xmlns="http://www.w3.org/2000/svg">
<path fill-rule="evenodd" clip-rule="evenodd" d="M94.1243 184.833L306.641 258.713L323.963 215.206L109.255 138.039L94.1243 184.833Z" fill="#08102B"/>
<path fill-rule="evenodd" clip-rule="evenodd" d="M94.1243 184.833L306.641 258.713L309.228 252.215L96.6183 177.129L94.1243 184.833Z" fill="#00061A"/>
<path fill-rule="evenodd" clip-rule="evenodd" d="M319.872 225.476L323.963 215.206L109.255 138.039L105.265 150.396L319.872 225.476Z" fill="#6978B6"/>
<path fill-rule="evenodd" clip-rule="evenodd" d="M219.856 130.457L248.052 138.486C259.484 141.742 266.174 153.752 262.926 165.191L240.243 244.858L170.475 224.991L193.157 145.323C196.413 133.891 208.423 127.201 219.856 130.457Z" fill="white"/>
<path fill-rule="evenodd" clip-rule="evenodd" d="M185.897 284.775L179.751 276.341L183.497 257.951L212.683 265.661L205.227 284.062C205.227 284.062 201.188 288.203 198.481 286.827L185.903 284.767L185.897 284.775Z" fill="url(#paint0_linear_148_407)"/>
<path fill-rule="evenodd" clip-rule="evenodd" d="M185.281 283.93L179.752 276.341L183.1 259.892L190.986 262.367L187.493 282.13C187.493 282.13 186.55 283.091 185.281 283.93Z" fill="#A1AED8"/>
<path fill-rule="evenodd" clip-rule="evenodd" d="M262.884 153.306C263.974 157.065 264.069 161.165 262.92 165.198L240.231 244.874L206.381 235.236L226.272 165.358C229.528 153.925 241.538 147.236 252.971 150.492L262.87 153.307L262.884 153.306Z" fill="#ABB6DD"/>
<path fill-rule="evenodd" clip-rule="evenodd" d="M244.601 217.515C245.698 221.281 245.918 225.417 244.636 229.408L240.043 243.642L206.193 234.004L207.995 229.56C212.469 218.545 223.261 211.437 234.694 214.694L244.593 217.509L244.601 217.515Z" fill="#667EBE"/>
<path fill-rule="evenodd" clip-rule="evenodd" d="M260.822 172.554L256.577 187.455C256.577 187.455 224.498 182.435 187.779 164.143L191.672 150.473C201.614 154.827 226.699 164.957 260.816 172.562L260.822 172.554Z" fill="url(#paint1_linear_148_407)"/>
<path fill-rule="evenodd" clip-rule="evenodd" d="M155.092 246.887C155.092 246.887 152.611 251.041 159.871 252.843C167.132 254.644 239.233 277.655 239.233 277.655C239.233 277.655 243.204 278.022 240.973 273.367C238.737 268.72 233.395 254.945 233.395 254.945L240.245 244.872L170.477 225.005L171.16 235.364L155.114 246.892L155.092 246.887Z" fill="url(#paint2_linear_148_407)"/>
<path fill-rule="evenodd" clip-rule="evenodd" d="M227.503 153.344C229.215 154.727 231.746 154.457 233.129 152.746C234.511 151.034 234.241 148.503 232.53 147.121C230.818 145.738 228.287 146.008 226.905 147.719C225.523 149.431 225.792 151.962 227.503 153.344Z" fill="#476DB4"/>
<path fill-rule="evenodd" clip-rule="evenodd" d="M206.123 222.392C207.835 223.774 210.366 223.505 211.748 221.793C213.13 220.082 212.861 217.55 211.15 216.168C209.438 214.786 206.907 215.055 205.524 216.767C204.142 218.478 204.412 221.01 206.123 222.392Z" fill="#476DB4"/>
<path fill-rule="evenodd" clip-rule="evenodd" d="M47.2144 103.988L171.771 144.89C173.864 145.578 175.09 147.879 174.426 149.991L153.634 215.875C152.969 217.987 150.754 219.154 148.661 218.466L24.1044 177.564C22.0118 176.877 20.7855 174.575 21.4575 172.47L42.2423 106.579C42.9064 104.468 45.1217 103.301 47.2144 103.988Z" fill="url(#paint3_linear_148_407)"/>
<path fill-rule="evenodd" clip-rule="evenodd" d="M49.5683 109.206L80.0232 119.149C80.0232 119.149 84.0994 120.5 82.9934 124.272C81.8873 128.045 75.2777 149.996 75.2777 149.996L39.1811 138.826L45.9764 112.873C45.9764 112.873 46.6524 107.866 49.5683 109.206Z" fill="url(#paint4_linear_148_407)"/>
<path fill-rule="evenodd" clip-rule="evenodd" d="M89.7035 122.776L120.158 132.719C120.158 132.719 124.235 134.07 123.129 137.843C122.023 141.616 115.413 163.567 115.413 163.567L79.3164 152.397L86.1117 126.444C86.1117 126.444 86.7877 121.437 89.7035 122.776Z" fill="url(#paint5_linear_148_407)"/>
<path fill-rule="evenodd" clip-rule="evenodd" d="M130.148 135.915L160.603 145.858C160.603 145.858 164.679 147.209 163.573 150.982C162.467 154.754 155.857 176.705 155.857 176.705L119.761 165.536L126.556 139.583C126.556 139.583 127.232 134.576 130.148 135.915Z" fill="url(#paint6_linear_148_407)"/>
<path fill-rule="evenodd" clip-rule="evenodd" d="M104.723 196.619L74.2839 186.624C74.2839 186.624 70.2077 185.273 71.3278 181.499C72.4479 177.725 79.0949 155.791 79.0949 155.791L115.169 167.02L108.323 192.957C108.323 192.957 107.633 197.966 104.723 196.619Z" fill="url(#paint7_linear_148_407)"/>
<path fill-rule="evenodd" clip-rule="evenodd" d="M64.182 184.314L33.7429 174.32C33.7429 174.32 29.6667 172.969 30.7868 169.195C31.9069 165.421 38.5539 143.487 38.5539 143.487L74.6283 154.716L67.7816 180.653C67.7816 180.653 67.0915 185.662 64.182 184.314Z" fill="url(#paint8_linear_148_407)"/>
<path fill-rule="evenodd" clip-rule="evenodd" d="M143.803 208.9L113.364 198.906C113.364 198.906 109.288 197.555 110.408 193.78C111.528 190.006 118.175 168.073 118.175 168.073L154.249 179.302L147.403 205.239C147.403 205.239 146.713 210.247 143.803 208.9Z" fill="url(#paint9_linear_148_407)"/>
<path fill-rule="evenodd" clip-rule="evenodd" d="M404.503 223.695L279.486 184.221C277.382 183.563 275.052 184.714 274.358 186.815L252.792 252.447C252.098 254.548 253.218 256.79 255.316 257.455L380.332 296.929C382.436 297.587 384.767 296.436 385.461 294.335L407.027 228.702C407.721 226.602 406.608 224.367 404.503 223.695Z" fill="url(#paint10_linear_148_407)"/>
<path fill-rule="evenodd" clip-rule="evenodd" d="M399.552 226.56L369.016 216.861C369.016 216.861 364.918 215.569 363.622 219.291C362.317 223.007 354.875 244.684 354.875 244.684L390.704 256.678L400.326 231.633C400.326 231.633 402.696 227.172 399.552 226.56Z" fill="url(#paint11_linear_148_407)"/>
<path fill-rule="evenodd" clip-rule="evenodd" d="M359.035 214.147L328.499 204.447C328.499 204.447 324.401 203.156 323.104 206.877C321.8 210.593 314.358 232.27 314.358 232.27L350.187 244.265L359.809 219.22C359.809 219.22 362.179 214.758 359.035 214.147Z" fill="url(#paint12_linear_148_407)"/>
<path fill-rule="evenodd" clip-rule="evenodd" d="M318.521 201.222L287.985 191.523C287.985 191.523 283.887 190.231 282.591 193.953C281.287 197.668 273.844 219.345 273.844 219.345L309.673 231.34L319.296 206.295C319.296 206.295 321.665 201.833 318.521 201.222Z" fill="url(#paint13_linear_148_407)"/>
<path fill-rule="evenodd" clip-rule="evenodd" d="M303.743 265.357L334.301 274.997C334.301 274.997 338.397 276.275 339.695 272.567C340.985 268.853 348.39 247.159 348.39 247.159L312.539 235.223L302.96 260.278C302.96 260.278 300.591 264.739 303.749 265.349L303.743 265.357Z" fill="url(#paint14_linear_148_407)"/>
<path fill-rule="evenodd" clip-rule="evenodd" d="M343.844 279.016L374.402 288.656C374.402 288.656 378.499 289.934 379.797 286.226C381.087 282.512 388.492 260.817 388.492 260.817L352.641 248.882L343.062 273.936C343.062 273.936 340.692 278.398 343.851 279.008L343.844 279.016Z" fill="url(#paint15_linear_148_407)"/>
<path fill-rule="evenodd" clip-rule="evenodd" d="M264.838 252.524L295.396 262.164C295.396 262.164 299.493 263.442 300.791 259.734C302.081 256.02 309.486 234.325 309.486 234.325L273.635 222.39L264.056 247.444C264.056 247.444 261.686 251.906 264.845 252.516L264.838 252.524Z" fill="url(#paint16_linear_148_407)"/>
<defs>
<linearGradient id="paint0_linear_148_407" x1="200.775" y1="267.021" x2="159.274" y2="294.008" gradientUnits="userSpaceOnUse">
<stop stop-color="#1B3575"/>
<stop offset="1" stop-color="#7583B5"/>
</linearGradient>
<linearGradient id="paint1_linear_148_407" x1="246.69" y1="176.141" x2="200.305" y2="162.639" gradientUnits="userSpaceOnUse">
<stop stop-color="#1E336D"/>
<stop offset="1" stop-color="#A3B5DD"/>
</linearGradient>
<linearGradient id="paint2_linear_148_407" x1="194.902" y1="267.29" x2="210.333" y2="242.104" gradientUnits="userSpaceOnUse">
<stop stop-color="#7989BE"/>
<stop offset="1" stop-color="#00061A"/>
</linearGradient>
<linearGradient id="paint3_linear_148_407" x1="103.438" y1="141.041" x2="92.505" y2="181.172" gradientUnits="userSpaceOnUse">
<stop stop-color="white"/>
<stop offset="1" stop-color="#5A73B7"/>
</linearGradient>
<linearGradient id="paint4_linear_148_407" x1="62.9757" y1="124.07" x2="59.3223" y2="137.65" gradientUnits="userSpaceOnUse">
<stop stop-color="#608FCB"/>
<stop offset="1" stop-color="#2A5DAB"/>
</linearGradient>
<linearGradient id="paint5_linear_148_407" x1="103.68" y1="136.236" x2="98.7433" y2="150.656" gradientUnits="userSpaceOnUse">
<stop stop-color="#497EC0"/>
<stop offset="1" stop-color="#2A5DAB"/>
</linearGradient>
<linearGradient id="paint6_linear_148_407" x1="144.124" y1="149.375" x2="139.181" y2="163.803" gradientUnits="userSpaceOnUse">
<stop stop-color="#497EC0"/>
<stop offset="1" stop-color="#2A5DAB"/>
</linearGradient>
<linearGradient id="paint7_linear_148_407" x1="90.7593" y1="183.143" x2="95.7364" y2="168.704" gradientUnits="userSpaceOnUse">
<stop stop-color="#497EC0"/>
<stop offset="1" stop-color="#2A5DAB"/>
</linearGradient>
<linearGradient id="paint8_linear_148_407" x1="50.2183" y1="170.839" x2="55.2017" y2="156.392" gradientUnits="userSpaceOnUse">
<stop stop-color="#497EC0"/>
<stop offset="1" stop-color="#2A5DAB"/>
</linearGradient>
<linearGradient id="paint9_linear_148_407" x1="129.839" y1="195.425" x2="134.817" y2="180.986" gradientUnits="userSpaceOnUse">
<stop stop-color="#497EC0"/>
<stop offset="1" stop-color="#2A5DAB"/>
</linearGradient>
<linearGradient id="paint10_linear_148_407" x1="337.586" y1="220" x2="322.319" y2="260.899" gradientUnits="userSpaceOnUse">
<stop stop-color="white"/>
<stop offset="1" stop-color="#5A73B7"/>
</linearGradient>
<linearGradient id="paint11_linear_148_407" x1="379.968" y1="230.835" x2="374.783" y2="244.592" gradientUnits="userSpaceOnUse">
<stop stop-color="#608FCB"/>
<stop offset="1" stop-color="#2A5DAB"/>
</linearGradient>
<linearGradient id="paint12_linear_148_407" x1="339.704" y1="217.328" x2="335.398" y2="231.588" gradientUnits="userSpaceOnUse">
<stop stop-color="#497EC0"/>
<stop offset="1" stop-color="#2A5DAB"/>
</linearGradient>
<linearGradient id="paint13_linear_148_407" x1="299.191" y1="204.403" x2="294.884" y2="218.664" gradientUnits="userSpaceOnUse">
<stop stop-color="#497EC0"/>
<stop offset="1" stop-color="#2A5DAB"/>
</linearGradient>
<linearGradient id="paint14_linear_148_407" x1="323.069" y1="262.134" x2="327.348" y2="247.89" gradientUnits="userSpaceOnUse">
<stop stop-color="#497EC0"/>
<stop offset="1" stop-color="#2A5DAB"/>
</linearGradient>
<linearGradient id="paint15_linear_148_407" x1="363.178" y1="275.799" x2="367.444" y2="261.557" gradientUnits="userSpaceOnUse">
<stop stop-color="#497EC0"/>
<stop offset="1" stop-color="#2A5DAB"/>
</linearGradient>
<linearGradient id="paint16_linear_148_407" x1="284.164" y1="249.301" x2="288.444" y2="235.057" gradientUnits="userSpaceOnUse">
<stop stop-color="#497EC0"/>
<stop offset="1" stop-color="#2A5DAB"/>
</linearGradient>
</defs>
</svg>
