<svg width="1135" height="824" viewBox="0 0 1135 824" fill="none" xmlns="http://www.w3.org/2000/svg">
<g filter="url(#filter0_d_143_206)">
<path fill-rule="evenodd" clip-rule="evenodd" d="M799.502 263.405L697.602 288.775C697.602 288.775 634.124 254.216 517.362 278.315C517.362 278.315 449.32 339.344 415.421 389.153C381.525 438.983 359.091 434.95 347.56 444.54C336.029 454.13 309.944 484.645 314.186 507.177C318.424 529.688 342.082 530.571 342.082 530.571C342.082 530.571 356.454 531.956 362.744 521.999C362.744 521.999 373.273 567.627 416.729 544.605C416.729 544.605 427.385 587.748 469.776 561.929C469.776 561.929 486.746 607.069 521.029 571.099C555.312 535.13 710.081 492.471 735.945 460.733C735.945 460.733 746.489 443.072 765.519 440.482C784.552 437.915 830.287 430.397 830.287 430.397L799.459 263.411L799.502 263.405Z" fill="url(#paint0_linear_143_206)"/>
<path fill-rule="evenodd" clip-rule="evenodd" d="M870.405 218.7L785.421 241.213C785.421 241.213 825.777 418.099 828.625 450.719L915.365 442.839C915.365 442.839 893.154 271.617 870.405 218.7Z" fill="url(#paint1_linear_143_206)"/>
<path fill-rule="evenodd" clip-rule="evenodd" d="M258.379 304.883C258.379 304.883 377.893 335.703 455.275 317.875C532.657 300.047 659.695 403.881 659.695 403.881C659.695 403.881 739.815 463.082 742.679 469.011C745.542 474.94 743.242 519.313 702.033 507.241C702.033 507.241 705.603 564.464 653.041 550.351C653.041 550.351 660.622 591.295 609.816 584.615C609.816 584.615 587.488 631.544 538.039 583.291C488.587 535.017 303.106 464.316 303.106 464.316L245.039 453.661L258.382 304.905L258.379 304.883Z" fill="url(#paint2_linear_143_206)"/>
<path fill-rule="evenodd" clip-rule="evenodd" d="M258.379 304.883C258.379 304.883 309.621 318.107 366.746 322.225L356.977 401.916C355.794 411.622 342.905 419.756 330.364 419.428L248.31 417.252L258.401 304.88L258.379 304.883Z" fill="url(#paint3_linear_143_206)"/>
<path fill-rule="evenodd" clip-rule="evenodd" d="M135.605 279.929L248.394 292.582C263.201 294.235 272.855 305.923 271.973 320.782L264.423 446.485C263.54 461.189 248.919 472.92 234.248 471.754L125.979 463.206L135.605 279.929Z" fill="#EEEDF6"/>
<path fill-rule="evenodd" clip-rule="evenodd" d="M266.926 405.055L264.444 446.481C263.562 461.186 248.94 472.917 234.27 471.751L125.979 463.206L129.583 394.797L266.926 405.055Z" fill="#9AA5D3"/>
<path fill-rule="evenodd" clip-rule="evenodd" d="M608.279 587.28C602.501 596.503 580.069 624.334 538.014 583.273C537.708 582.986 537.377 582.682 537.068 582.374C538.888 569.582 544.392 548.045 560.928 551.739C560.928 551.739 595.501 570.911 608.279 587.28Z" fill="#687BBB"/>
<path fill-rule="evenodd" clip-rule="evenodd" d="M616.287 428.613C616.287 428.613 629.915 391.922 653.901 406.257C677.887 420.592 692.67 432.179 692.67 432.179C692.67 432.179 701.281 475.529 658.98 471.344C658.98 471.344 614.936 450.476 616.287 428.613Z" fill="#687BBB"/>
<path fill-rule="evenodd" clip-rule="evenodd" d="M592.806 455.142C592.806 455.142 604.527 440.901 639.658 468.537C674.766 496.176 682.265 499.191 682.265 499.191C682.265 499.191 670.478 545.437 643.092 535.997C615.706 526.557 580.738 491.014 580.738 491.014C574.873 477.128 576.233 464.666 592.806 455.142Z" fill="#687BBB"/>
<path fill-rule="evenodd" clip-rule="evenodd" d="M544.237 517.569C544.237 517.569 553.598 487.417 578.632 499.531C603.688 511.641 628.611 536.301 628.611 536.301L632.005 567.653C632.005 567.653 612.486 585.066 590.194 565.797C567.903 546.528 543.4 544.533 544.215 517.573L544.237 517.569Z" fill="#687BBB"/>
<path fill-rule="evenodd" clip-rule="evenodd" d="M702.099 435.73C721.819 450.79 741.292 466.128 742.679 469.011C745.484 474.838 743.312 517.805 704.104 507.822L673.31 484.846C711.521 483.323 701.905 435.604 701.905 435.604L702.102 435.752L702.099 435.73Z" fill="#98A4D3"/>
<path fill-rule="evenodd" clip-rule="evenodd" d="M702.013 512.154C701.476 525.422 696.235 560.419 655.628 550.991L643.095 536.018C676.976 529.57 672.637 492.893 672.637 492.893L702.016 512.176L702.013 512.154Z" fill="#98A4D3"/>
<path fill-rule="evenodd" clip-rule="evenodd" d="M608.279 587.28C604.009 594.105 590.595 611.145 566.84 602.855C566.976 602.725 582.774 587.522 589.47 572.265L608.282 587.302L608.279 587.28Z" fill="#98A4D3"/>
<path fill-rule="evenodd" clip-rule="evenodd" d="M653.401 554.373C653.75 564.298 650.816 588.811 612.575 584.921L599.018 569.127C624.025 568.495 628.611 536.3 628.611 536.3C637.08 539.77 647.318 548.621 653.401 554.373Z" fill="#98A4D3"/>
<path fill-rule="evenodd" clip-rule="evenodd" d="M469.8 561.948C469.8 561.948 486.771 607.088 521.053 571.119C521.285 570.887 521.516 570.655 521.769 570.421L534.786 543.573C534.786 543.573 538.03 504.525 497.523 515.848L487.581 529.569L469.822 561.945L469.8 561.948Z" fill="url(#paint4_linear_143_206)"/>
<path fill-rule="evenodd" clip-rule="evenodd" d="M416.753 544.624C416.753 544.624 427.41 587.767 469.8 561.948C479.599 544.02 495.733 514.763 495.733 514.763C495.733 514.763 496.685 471.906 454.791 486.159C454.791 486.159 446.629 487.886 432.953 516.282L416.753 544.624Z" fill="url(#paint5_linear_143_206)"/>
<path fill-rule="evenodd" clip-rule="evenodd" d="M361.25 524.042C361.803 523.434 362.3 522.746 362.768 522.018C362.768 522.018 362.191 522.762 361.25 524.042ZM362.768 522.018L386.274 475.139L387.547 471.873C411.718 439.871 432.204 458.41 441.387 465.762C447.525 470.669 447.818 480.668 447.345 486.726C447.113 489.71 446.679 491.754 446.679 491.754L423.577 533.004L416.651 544.682C373.288 567.581 362.768 522.018 362.768 522.018Z" fill="url(#paint6_linear_143_206)"/>
<path fill-rule="evenodd" clip-rule="evenodd" d="M351.796 441.772C350.258 442.588 348.841 443.475 347.581 444.537C336.051 454.127 309.966 484.642 314.207 507.174C318.446 529.685 342.104 530.568 342.104 530.568C342.104 530.568 352.467 531.562 359.448 525.778L362.769 522.018L386.274 475.139C386.274 475.139 386.007 454.764 372.72 445.736C368.413 442.811 360.497 441.794 351.799 441.793L351.796 441.772Z" fill="url(#paint7_linear_143_206)"/>
<path fill-rule="evenodd" clip-rule="evenodd" d="M697.601 288.775C697.601 288.775 634.123 254.216 517.361 278.315C517.361 278.315 449.32 339.344 415.421 389.153C415.421 389.153 414.839 410.993 442.748 417.935C442.748 417.935 469.547 424.994 520.168 371.894C520.168 371.894 540.664 352.38 561.438 364.183C582.211 375.986 641.062 402.03 672.64 390.783C704.218 379.537 743.709 355.655 697.58 288.778L697.601 288.775Z" fill="url(#paint8_linear_143_206)"/>
<path fill-rule="evenodd" clip-rule="evenodd" d="M203.784 339.443L198.983 432.004C198.94 432.935 199.643 433.979 200.57 434.286C201.5 434.614 202.291 434.126 202.333 433.195L207.134 340.633C207.176 339.702 206.477 338.68 205.547 338.352C204.616 338.024 203.826 338.512 203.784 339.443Z" fill="#344275"/>
</g>
<defs>
<filter id="filter0_d_143_206" x="-92.7205" y="0.000198364" width="1226.79" height="823.785" filterUnits="userSpaceOnUse" color-interpolation-filters="sRGB">
<feFlood flood-opacity="0" result="BackgroundImageFix"/>
<feColorMatrix in="SourceAlpha" type="matrix" values="0 0 0 0 0 0 0 0 0 0 0 0 0 0 0 0 0 0 127 0" result="hardAlpha"/>
<feOffset/>
<feGaussianBlur stdDeviation="109.35"/>
<feComposite in2="hardAlpha" operator="out"/>
<feColorMatrix type="matrix" values="0 0 0 0 1 0 0 0 0 1 0 0 0 0 1 0 0 0 0.17 0"/>
<feBlend mode="normal" in2="BackgroundImageFix" result="effect1_dropShadow_143_206"/>
<feBlend mode="normal" in="SourceGraphic" in2="effect1_dropShadow_143_206" result="shape"/>
</filter>
<linearGradient id="paint0_linear_143_206" x1="581.036" y1="482.668" x2="549.498" y2="355.482" gradientUnits="userSpaceOnUse">
<stop stop-color="#EC6D53"/>
<stop offset="1" stop-color="#F9C9A5"/>
</linearGradient>
<linearGradient id="paint1_linear_143_206" x1="870.804" y1="447.017" x2="833.369" y2="239.761" gradientUnits="userSpaceOnUse">
<stop stop-color="#003D96"/>
<stop offset="1" stop-color="#4188C8"/>
</linearGradient>
<linearGradient id="paint2_linear_143_206" x1="485.88" y1="464.942" x2="497.074" y2="410.559" gradientUnits="userSpaceOnUse">
<stop stop-color="#223566"/>
<stop offset="1" stop-color="#515F92"/>
</linearGradient>
<linearGradient id="paint3_linear_143_206" x1="309.539" y1="346.327" x2="296.452" y2="397.817" gradientUnits="userSpaceOnUse">
<stop stop-color="#9DA8D5"/>
<stop offset="1" stop-color="#687BBB"/>
</linearGradient>
<linearGradient id="paint4_linear_143_206" x1="425.901" y1="481.141" x2="533.65" y2="575.342" gradientUnits="userSpaceOnUse">
<stop stop-color="#F8C59F"/>
<stop offset="0.2" stop-color="#F6B995"/>
<stop offset="0.55" stop-color="#F29B7B"/>
<stop offset="1" stop-color="#EC6D53"/>
</linearGradient>
<linearGradient id="paint5_linear_143_206" x1="403.722" y1="479.803" x2="506.46" y2="569.628" gradientUnits="userSpaceOnUse">
<stop stop-color="#F8C59F"/>
<stop offset="0.2" stop-color="#F6B995"/>
<stop offset="0.55" stop-color="#F29B7B"/>
<stop offset="1" stop-color="#EC6D53"/>
</linearGradient>
<linearGradient id="paint6_linear_143_206" x1="374.004" y1="474.86" x2="476.641" y2="564.589" gradientUnits="userSpaceOnUse">
<stop stop-color="#F8C59F"/>
<stop offset="0.2" stop-color="#F6B995"/>
<stop offset="0.55" stop-color="#F29B7B"/>
<stop offset="1" stop-color="#EC6D53"/>
</linearGradient>
<linearGradient id="paint7_linear_143_206" x1="339.443" y1="476.891" x2="444.625" y2="568.858" gradientUnits="userSpaceOnUse">
<stop stop-color="#F8C59F"/>
<stop offset="0.2" stop-color="#F6B995"/>
<stop offset="0.55" stop-color="#F29B7B"/>
<stop offset="1" stop-color="#EC6D53"/>
</linearGradient>
<linearGradient id="paint8_linear_143_206" x1="556.03" y1="307.379" x2="583.004" y2="445.722" gradientUnits="userSpaceOnUse">
<stop stop-color="#F8C59F"/>
<stop offset="1" stop-color="#EC6D53"/>
</linearGradient>
</defs>
</svg>
