<svg width="777" height="76" viewBox="0 0 777 76" fill="none" xmlns="http://www.w3.org/2000/svg">
<path d="M0 3.8H50.74V13.832H10.194V26.144H42.8454V36.176H10.194V58.52H0V3.8Z" fill="white"/>
<path d="M90.1099 14.44H100.151V48.032C100.151 50.92 99.1031 53.4027 97.0081 55.48C94.9642 57.5067 92.4859 58.52 89.5734 58.52H65.583C62.6194 58.52 60.1156 57.5067 58.0717 55.48C56.0278 53.4027 55.0058 50.92 55.0058 48.032V14.44H65.0465V48.032C65.0465 48.3867 65.2253 48.564 65.583 48.564H89.5734C89.9311 48.564 90.1099 48.3867 90.1099 48.032V14.44Z" fill="white"/>
<path d="M133.865 24.396H116.543V48.032C116.543 48.3867 116.722 48.564 117.08 48.564H133.865V58.52H117.08C114.116 58.52 111.612 57.5067 109.569 55.48C107.525 53.4027 106.503 50.92 106.503 48.032V0H116.543V14.44H133.865V24.396Z" fill="white"/>
<path d="M175.065 14.44H185.105V48.032C185.105 50.92 184.058 53.4027 181.963 55.48C179.919 57.5067 177.441 58.52 174.528 58.52H150.538C147.574 58.52 145.07 57.5067 143.027 55.48C140.983 53.4027 139.961 50.92 139.961 48.032V14.44H150.001V48.032C150.001 48.3867 150.18 48.564 150.538 48.564H174.528C174.886 48.564 175.065 48.3867 175.065 48.032V14.44Z" fill="white"/>
<path d="M203.754 14.44H228.435V24.396H203.754C203.397 24.396 203.218 24.5733 203.218 24.928V58.52H193.177V24.928C193.177 22.04 194.199 19.5827 196.243 17.556C198.338 15.4787 200.842 14.44 203.754 14.44Z" fill="white"/>
<path d="M268.162 14.44C271.075 14.44 273.553 15.4787 275.597 17.556C277.692 19.5827 278.739 22.04 278.739 24.928V41.496H243.635V48.032C243.635 48.3867 243.814 48.564 244.172 48.564H278.739V58.52H244.172C241.259 58.52 238.755 57.5067 236.66 55.48C234.616 53.4027 233.594 50.92 233.594 48.032V24.928C233.594 22.04 234.616 19.5827 236.66 17.556C238.755 15.4787 241.259 14.44 244.172 14.44H268.162ZM243.635 31.464H268.699V24.928C268.699 24.5733 268.52 24.396 268.162 24.396H244.172C243.814 24.396 243.635 24.5733 243.635 24.928V31.464Z" fill="white"/>
<path d="M344.809 14.44H355.769V16.948L339.29 36.1L355.769 56.012V58.52H344.809L332.775 43.928L320.818 58.52H309.858V56.012L326.26 36.1L309.858 16.948V14.44H320.818L332.775 28.424L344.809 14.44Z" fill="url(#paint0_radial_214_93)"/>
<path d="M433.642 3.8H443.759V58.52H433.642V36.176H397.465V58.52H387.347V3.8H397.465V26.144H433.642V3.8Z" fill="white"/>
<path d="M487.339 14.44H497.38V48.032C497.38 50.92 496.332 53.4027 494.237 55.48C492.193 57.5067 489.715 58.52 486.803 58.52H462.812C459.849 58.52 457.345 57.5067 455.301 55.48C453.257 53.4027 452.235 50.92 452.235 48.032V14.44H462.276V48.032C462.276 48.3867 462.455 48.564 462.812 48.564H486.803C487.16 48.564 487.339 48.3867 487.339 48.032V14.44Z" fill="white"/>
<path d="M558.768 14.44C561.68 14.44 564.159 15.4787 566.202 17.556C568.297 19.5827 569.345 22.04 569.345 24.928V58.52H559.381V24.928C559.381 24.5733 559.177 24.396 558.768 24.396H542.059C541.752 24.396 541.599 24.5733 541.599 24.928V58.52H531.482V24.928C531.482 24.5733 531.328 24.396 531.022 24.396H514.236C513.878 24.396 513.7 24.5733 513.7 24.928V58.52H503.659V14.44H558.768Z" fill="white"/>
<path d="M609.929 14.44C612.842 14.44 615.32 15.4787 617.364 17.556C619.459 19.5827 620.506 22.04 620.506 24.928V58.52H585.939C583.026 58.52 580.523 57.5067 578.428 55.48C576.384 53.4027 575.362 50.92 575.362 48.032V31.464H610.466V24.928C610.466 24.5733 610.287 24.396 609.929 24.396H575.362V14.44H609.929ZM610.466 48.564V41.496H585.402V48.032C585.402 48.3867 585.581 48.564 585.939 48.564H610.466Z" fill="white"/>
<path d="M662.627 14.44C665.54 14.44 668.018 15.4787 670.062 17.556C672.157 19.5827 673.205 22.04 673.205 24.928V58.52H663.164V24.928C663.164 24.5733 662.985 24.396 662.627 24.396H638.637C638.279 24.396 638.1 24.5733 638.1 24.928V58.52H628.06V14.44H662.627Z" fill="white"/>
<path d="M681.275 58.52V14.44H691.315V58.52H681.275ZM681.275 0H691.315V10.032H681.275V0Z" fill="white"/>
<path d="M726.603 24.396H709.281V48.032C709.281 48.3867 709.46 48.564 709.818 48.564H726.603V58.52H709.818C706.854 58.52 704.35 57.5067 702.306 55.48C700.262 53.4027 699.24 50.92 699.24 48.032V0H709.281V14.44H726.603V24.396Z" fill="white"/>
<path d="M777 65.512C777 68.4 775.978 70.8573 773.934 72.884C771.89 74.9613 769.412 76 766.499 76H739.29V65.968H766.499C766.806 65.968 766.959 65.816 766.959 65.512V58.52H742.432C739.52 58.52 737.016 57.5067 734.921 55.48C732.877 53.4027 731.855 50.92 731.855 48.032V14.592H741.896V48.032C741.896 48.3867 742.075 48.564 742.432 48.564H766.499C766.806 48.564 766.959 48.3867 766.959 48.032V14.592H777V65.512Z" fill="white"/>
<defs>
<radialGradient id="paint0_radial_214_93" cx="0" cy="0" r="1" gradientUnits="userSpaceOnUse" gradientTransform="translate(388.5 38) scale(388.5 38)">
<stop stop-color="#4F46E5"/>
<stop offset="0.557692" stop-color="#00F5D4"/>
</radialGradient>
</defs>
</svg>
