<svg width="259" height="141" viewBox="0 0 259 141" fill="none" xmlns="http://www.w3.org/2000/svg">
<path fill-rule="evenodd" clip-rule="evenodd" d="M0.0274189 138.248C0.0274189 138.248 2.82827 110.759 41.0605 87.7638C41.0605 87.7638 26.8046 58.8496 69.4227 36.5811C112.041 14.3127 138.973 3.65747 138.973 3.65747C138.973 3.65747 175.988 -9.20262 193.695 13.306C193.695 13.306 235.674 0.103214 258.471 13.6538C258.471 13.6538 267.141 28.9687 183.036 71.7862C183.036 71.7862 188.19 82.3209 175.177 88.9873C162.136 95.6444 115.657 118.084 115.657 118.084C115.657 118.084 101.732 123.949 95.0996 112.526C95.0996 112.526 21.1517 151.545 7.43297e-05 138.238L0.0274189 138.248Z" fill="url(#paint0_linear_143_118)"/>
<path fill-rule="evenodd" clip-rule="evenodd" d="M0.202939 137.147C0.264916 136.756 0.374339 136.274 0.512713 135.711C5.21269 126.558 58.7455 94.551 124.915 62.6051C191.084 30.6591 241.818 12.2143 255.593 12.1317C256.593 12.5969 257.573 13.1167 258.507 13.6815C258.507 13.6815 258.711 14.057 258.743 14.8315C254.995 24.5406 206.949 61.3471 140.632 93.3645C125.157 100.836 109.899 107.434 95.4741 113.112C95.3672 112.938 95.2515 112.746 95.1358 112.553C95.1358 112.553 93.0081 113.671 89.3651 115.475C40.4601 134.165 2.45395 141.951 0.253521 137.394C0.218173 137.32 0.191639 137.266 0.193267 137.174L0.202939 137.147Z" fill="#8590C7"/>
<path fill-rule="evenodd" clip-rule="evenodd" d="M65.0977 93.4479C65.0977 93.4479 79.9186 115.363 95.1455 112.526C95.1455 112.526 125.217 78.4841 184.081 71.2591C184.081 71.2591 190.83 59.2206 183.232 36.2106C163.201 45.2944 143.18 54.351 123.15 63.4348L69.5503 90.4405L65.0888 93.4296L65.0977 93.4479Z" fill="#363F96"/>
<path fill-rule="evenodd" clip-rule="evenodd" d="M185.107 70.741C184.423 71.0712 183.757 71.4381 183.063 71.7956C183.063 71.7956 188.217 82.3302 175.204 88.9967C162.163 95.6538 115.684 118.094 115.684 118.094C115.684 118.094 101.907 123.887 95.2339 112.709C102.444 105.166 132.876 76.5923 185.097 70.7682L185.107 70.741Z" fill="url(#paint1_linear_143_118)"/>
<path fill-rule="evenodd" clip-rule="evenodd" d="M63.475 110.911C66.1188 109.635 67.9196 107.84 67.4777 106.925C67.0359 106.009 64.5104 106.303 61.8666 107.58C59.2228 108.856 57.4221 110.651 57.8639 111.566C58.3058 112.481 60.8312 112.187 63.475 110.911Z" fill="#3F3B3A"/>
<path fill-rule="evenodd" clip-rule="evenodd" d="M198.281 44.8572C200.925 43.5808 202.725 41.7861 202.283 40.8709C201.842 39.9557 199.316 40.2495 196.672 41.5259C194.029 42.8023 192.228 44.5971 192.67 45.5123C193.111 46.4275 195.637 46.1337 198.281 44.8572Z" fill="#231916"/>
<defs>
<linearGradient id="paint0_linear_143_118" x1="149.538" y1="93.9381" x2="93.8389" y2="43.8084" gradientUnits="userSpaceOnUse">
<stop stop-color="#8590C7"/>
<stop offset="1" stop-color="white"/>
</linearGradient>
<linearGradient id="paint1_linear_143_118" x1="80.1721" y1="-19.6227" x2="147.897" y2="98.0543" gradientUnits="userSpaceOnUse">
<stop stop-color="#363F96"/>
<stop offset="1" stop-color="white"/>
</linearGradient>
</defs>
</svg>
