<svg width="887" height="739" viewBox="0 0 887 739" fill="none" xmlns="http://www.w3.org/2000/svg">
<path fill-rule="evenodd" clip-rule="evenodd" d="M730.784 738.512C816.58 738.512 886.568 668.52 886.568 582.719C886.568 496.918 816.58 426.926 730.784 426.926C644.988 426.926 575 496.918 575 582.719C575 668.52 644.988 738.512 730.784 738.512Z" fill="white"/>
<path fill-rule="evenodd" clip-rule="evenodd" d="M850.611 483.179C873.059 510.169 886.568 544.863 886.568 582.719C886.568 635.005 860.815 681.283 821.294 709.538C797.696 721.927 770.219 729.055 740.873 729.055C652.95 729.055 581.668 665.215 581.668 586.456C581.668 507.697 652.95 443.857 740.873 443.857C783.411 443.857 822.07 458.804 850.64 483.179H850.611Z" fill="url(#paint0_linear_289_8)"/>
<path fill-rule="evenodd" clip-rule="evenodd" d="M730.784 426.927C738.171 426.927 745.443 427.444 752.571 428.45L752.025 439.315C752.025 439.315 725.668 435.291 730.497 439.545C735.354 443.799 744.437 448.054 744.437 448.054C744.437 448.054 747.857 447.105 748.576 448.887C749.294 450.669 749.409 453.486 749.409 453.486C749.409 453.486 752.715 457.97 755.33 456.677C757.946 455.383 767.402 464.725 758.406 466.478C749.409 468.261 740.672 470.273 740.183 479.241C739.723 488.238 737.568 489.991 732.624 486.685C727.651 483.38 716.068 476.165 716.413 468.232C716.758 460.298 703.766 455.469 696.178 457.108C688.619 458.775 687.901 457.453 689.424 450.957C690.947 444.46 681.376 455.699 681.376 455.699C681.376 455.699 676.289 452.279 675.829 457.826C675.369 463.374 664.131 464.323 664.131 464.323C664.131 464.323 662.349 459.005 656.313 461.592C650.277 464.179 649.443 469.41 645.563 469.525C641.654 469.64 635.388 473.32 640.964 474.958C646.512 476.625 647.115 472.342 649.472 475.792C651.829 479.241 654.071 473.549 654.071 473.549C654.071 473.549 660.567 470.014 664.964 471.307C669.333 472.601 670.512 470.474 671 469.18C671.46 467.887 674.535 467.887 674.535 467.887L671.92 466.478L674.047 463.633C674.047 463.633 675.57 461.851 678.531 462.914C681.491 463.978 683.129 464.811 682.785 466.22C682.44 467.628 682.181 469.899 680.658 469.64C679.134 469.382 677.582 470.819 678.042 471.882C678.502 472.946 683.359 474.958 679.22 475.073C675.082 475.188 672.495 474.354 673.788 476.625C675.082 478.896 681.721 479.586 674.852 481.109C667.982 482.633 663.728 481.454 662.55 485.018C661.371 488.554 656.629 485.967 659.359 492.233C662.09 498.499 659.589 496.027 666.689 498.269C673.788 500.511 674.622 503.472 674.622 503.472L677.812 505.829C677.812 505.829 682.296 506.174 681.117 498.844C679.939 491.515 684.078 483.955 686.55 484.53C689.022 485.133 693.764 489.014 693.764 489.014L696.955 491.256C696.955 491.256 701.208 493.038 702.157 491.371C703.105 489.704 721.673 503.07 720.236 505.8C718.799 508.531 705.807 510.658 704.284 509.48C702.761 508.301 696.495 512.555 700.26 514.682C704.054 516.809 710.78 521.063 702.387 521.897C693.994 522.731 694.339 526.151 694.109 528.163C693.879 530.175 682.986 532.417 682.641 537.16C682.296 541.903 674.478 551.705 671.776 550.526C669.046 549.348 672.236 561.65 672.236 561.65C672.236 561.65 672.466 564.611 667.637 560.816C662.78 557.022 665.625 554.78 655.68 554.895C645.736 555.01 639.125 561.995 640.073 569.095C641.022 576.194 646.684 581.167 652.835 575.131C658.986 569.095 656.859 580.794 656.859 580.794C656.859 580.794 654.013 587.29 667.379 587.06C667.379 587.06 671.92 593.987 668.442 598.874C664.964 603.789 680.14 601.949 680.629 599.333C681.117 596.718 688.447 590.825 693.505 593.527C698.593 596.258 709.946 598.73 710.78 597.206C711.613 595.683 719.287 608.1 725.668 606.318C732.049 604.536 741.879 617.069 742.454 621.696C743.057 626.295 752.514 621.696 754.985 623.938C757.457 626.18 769.184 625.835 770.708 629.141C772.231 632.447 783.239 638.943 769.155 642.507C755.072 646.043 766.799 662.743 766.799 662.743C766.799 662.743 772.001 677.517 745.759 675.505C745.759 675.505 739.263 674.902 744.926 685.451C750.588 695.971 724.691 700.11 724.691 700.11C724.691 700.11 720.092 700.34 723.398 708.618C723.398 708.618 716.413 711.09 721.271 715C726.128 718.909 718.914 720.317 718.914 720.317C718.914 720.317 725.295 726.928 720.667 730.378C720.667 730.378 707.446 732.907 705.577 723.134C703.68 713.39 707.158 715.258 702.444 702.697C697.731 690.107 709.687 666.824 697.414 658.029C685.141 649.233 680.111 647.968 680.744 644.174C681.376 640.409 673.185 635.378 672.552 633.481C671.92 631.584 673.501 625.922 671.604 622.789C669.707 619.655 682.296 613.993 679.795 609.882C677.266 605.801 677.266 605.168 671.316 604.852C665.338 604.536 662.521 603.271 659.992 599.822C657.462 596.373 655.91 592.895 652.433 591.946C648.983 590.998 650.852 587.865 644.873 587.548C638.895 587.232 627.887 583.151 627.887 583.151L623.489 577.804C623.489 577.804 617.827 557.683 615.614 556.735C613.4 555.786 617.511 566.795 617.511 566.795L613.113 568.06C613.113 568.06 596.442 534.717 615.93 519.942C615.93 519.942 610.9 513.331 614.665 505.8C618.43 498.269 615.614 488.18 606.186 500.138C604.059 502.811 601.415 502.38 598.541 500.138C626.076 456.131 674.967 426.869 730.698 426.869L730.784 426.927Z" fill="url(#paint1_linear_289_8)"/>
<path fill-rule="evenodd" clip-rule="evenodd" d="M816.264 452.48C858.602 480.333 886.568 528.25 886.568 582.719C886.568 593.93 885.39 604.852 883.119 615.401L859.234 670.849C856.36 675.017 853.313 679.041 850.065 682.921C850.324 675.045 851.646 663.404 856.533 653.717C864.753 637.419 854.176 633.683 855.9 623.105C857.653 612.527 854.147 608.043 849.692 604.939C845.208 601.834 847.565 609.796 820.202 605.801C792.839 601.806 798.789 561.248 804.02 560.759C809.251 560.27 814.482 551.791 816.581 544.461C818.707 537.131 829.141 539.488 829.141 539.488C829.141 539.488 850.841 528.02 849.922 535.378C849.002 542.737 861.246 547.709 861.246 547.709C861.246 547.709 865.586 544.231 872.686 545.956C879.785 547.709 881.136 569.727 882.631 566.105C884.125 562.484 879.268 548.428 875.905 545.094C872.542 541.73 872.916 525.318 868.432 526.812C863.948 528.307 871.91 532.906 868.547 536.528C865.184 540.15 857.596 526.812 855.986 523.104C854.377 519.368 842.046 516.378 851.503 522.846C860.959 529.313 856.216 535.292 856.216 535.292C856.216 535.292 853.601 534.659 852.968 531.44C852.336 528.192 843.771 521.61 840.408 521.236C837.045 520.862 832.446 521.495 831.21 530.693C829.974 539.891 822.243 536.787 814.799 536.039C807.325 535.292 811.177 525.835 810.947 521.351C810.688 516.867 820.03 518.85 821.266 517.126C822.501 515.372 809.567 506.548 814.425 507.036C819.282 507.525 828.739 498.959 829.716 496.459C830.722 493.958 839.431 494.849 839.431 494.849C848.887 489.876 836.93 481.425 833.452 480.419C829.975 479.413 821.122 458.775 821.496 467.6C821.869 476.424 837.792 484.386 836.93 488.985C836.068 493.584 829.831 493.843 829.831 493.843C829.831 493.843 812.787 485.248 812.413 478.407C812.039 471.624 814.195 461.247 816.178 452.48H816.264Z" fill="url(#paint2_linear_289_8)"/>
<path fill-rule="evenodd" clip-rule="evenodd" d="M768.063 474.325C768.063 474.325 777.548 479.988 779.388 475.648C781.227 471.307 767.402 469.726 768.063 474.325Z" fill="white"/>
<path fill-rule="evenodd" clip-rule="evenodd" d="M801.116 501.603C801.116 501.603 798.616 491.313 802.956 490.278C807.296 489.215 819.166 497.665 819.425 499.505C819.684 501.345 817.039 505.829 811.521 501.891C805.974 497.924 809.02 493.066 805.6 495.567C802.18 498.068 808.503 507.295 801.116 501.632V501.603Z" fill="white"/>
<path fill-rule="evenodd" clip-rule="evenodd" d="M711.498 513.072C711.498 513.072 716.499 508.33 721.241 511.233C725.984 514.136 726.243 514.797 722.017 515.573C717.792 516.349 711.469 513.072 711.469 513.072H711.498Z" fill="white"/>
<path fill-rule="evenodd" clip-rule="evenodd" d="M690.286 476.05C690.286 476.05 686.866 482.115 693.189 480.649C693.189 480.649 692.931 485.133 697.73 483.868C702.53 482.603 699.685 475.044 699.685 475.044C699.685 475.044 692.413 466.018 686.55 465.961C680.686 465.903 684.48 471.393 690.315 476.021L690.286 476.05Z" fill="white"/>
<path fill-rule="evenodd" clip-rule="evenodd" d="M684.021 579.471C684.021 579.471 694.425 582.863 695.288 577.717C696.179 572.572 681.405 575.475 684.021 579.471Z" fill="white"/>
<path fill-rule="evenodd" clip-rule="evenodd" d="M750.376 185.065C784.568 185.065 812.471 157.178 812.471 122.967C812.471 88.7559 784.585 60.8691 750.376 60.8691C716.167 60.8691 688.282 88.7559 688.282 122.967C688.282 157.178 716.167 185.065 750.376 185.065Z" fill="url(#paint3_linear_289_8)"/>
<path fill-rule="evenodd" clip-rule="evenodd" d="M798.132 83.3124C807.081 94.076 812.453 107.905 812.453 122.985C812.453 143.825 802.184 162.269 786.435 173.526C777.029 178.476 766.072 181.312 754.375 181.312C719.338 181.312 690.925 155.874 690.925 124.482C690.925 93.0895 719.338 67.6514 754.375 67.6514C771.339 67.6514 786.735 73.6057 798.114 83.3124H798.132Z" fill="#3B489C"/>
<path fill-rule="evenodd" clip-rule="evenodd" d="M750.376 60.8867C753.318 60.8867 756.224 61.0981 759.06 61.4857L758.849 65.8193C758.849 65.8193 748.333 64.2163 750.27 65.9074C752.208 67.5986 755.837 69.3074 755.837 69.3074C755.837 69.3074 757.211 68.9375 757.493 69.6421C757.774 70.3468 757.827 71.4742 757.827 71.4742C757.827 71.4742 759.148 73.2711 760.188 72.7426C761.227 72.2317 764.997 75.9488 761.421 76.6534C757.845 77.3581 754.357 78.1684 754.163 81.7446C753.97 85.3207 753.124 86.0254 751.151 84.7218C749.178 83.4005 744.545 80.5291 744.686 77.3757C744.827 74.2224 739.648 72.2846 736.618 72.954C733.606 73.6058 733.324 73.0949 733.923 70.5053C734.522 67.9157 730.717 72.3903 730.717 72.3903C730.717 72.3903 728.691 71.0162 728.498 73.2358C728.304 75.4555 723.83 75.8255 723.83 75.8255C723.83 75.8255 723.125 73.7115 720.712 74.7333C718.316 75.7726 717.981 77.8513 716.431 77.8866C714.881 77.9394 712.38 79.4016 714.599 80.0534C716.819 80.7052 717.048 79.014 717.999 80.3881C718.95 81.7622 719.831 79.4897 719.831 79.4897C719.831 79.4897 722.42 78.0804 724.164 78.5913C725.908 79.1021 726.384 78.2565 726.56 77.7456C726.754 77.2348 727.969 77.2348 727.969 77.2348L726.93 76.671L727.775 75.5436C727.775 75.5436 728.392 74.839 729.572 75.2618C730.752 75.6845 731.404 76.0193 731.263 76.583C731.122 77.1467 731.034 78.0451 730.418 77.9571C729.801 77.869 729.185 78.4327 729.378 78.8555C729.572 79.2783 731.492 80.0886 729.854 80.1239C728.198 80.1767 727.176 79.842 727.687 80.7405C728.198 81.6389 730.841 81.9207 728.11 82.5373C725.38 83.1539 723.689 82.6783 723.213 84.0876C722.737 85.4969 720.853 84.4575 721.945 86.9591C723.037 89.4606 722.033 88.4741 724.869 89.3549C727.705 90.2533 728.022 91.4336 728.022 91.4336L729.29 92.3849C729.29 92.3849 731.087 92.5258 730.612 89.6015C730.136 86.6772 731.792 83.6648 732.778 83.8938C733.765 84.1228 735.65 85.6907 735.65 85.6907L736.918 86.5891C736.918 86.5891 738.609 87.2937 738.996 86.6419C739.366 85.9901 746.765 91.3103 746.201 92.3849C745.637 93.4771 740.458 94.3227 739.842 93.847C739.225 93.3714 736.724 95.0802 738.239 95.9258C739.754 96.7714 742.431 98.4626 739.085 98.7973C735.738 99.132 735.879 100.488 735.79 101.299C735.702 102.092 731.351 102.99 731.21 104.875C731.069 106.76 727.952 110.671 726.877 110.195C725.785 109.719 727.071 114.634 727.071 114.634C727.071 114.634 727.159 115.815 725.239 114.3C723.301 112.785 724.446 111.904 720.483 111.939C716.519 111.992 713.877 114.775 714.264 117.594C714.634 120.43 716.907 122.403 719.355 119.99C721.804 117.594 720.958 122.245 720.958 122.245C720.958 122.245 719.831 124.834 725.151 124.746C725.151 124.746 726.965 127.512 725.574 129.467C724.182 131.423 730.242 130.701 730.435 129.661C730.629 128.622 733.553 126.261 735.579 127.353C737.605 128.446 742.132 129.432 742.467 128.816C742.801 128.199 745.866 133.149 748.403 132.445C750.94 131.74 754.868 136.725 755.097 138.575C755.326 140.407 759.096 138.575 760.1 139.474C761.086 140.372 765.754 140.231 766.371 141.552C766.987 142.874 771.374 145.463 765.754 146.872C760.153 148.282 764.821 154.941 764.821 154.941C764.821 154.941 766.899 160.825 756.436 160.032C756.436 160.032 753.846 159.803 756.101 163.996C758.356 168.188 748.033 169.844 748.033 169.844C748.033 169.844 746.201 169.932 747.522 173.244C747.522 173.244 744.739 174.231 746.677 175.781C748.614 177.331 745.726 177.895 745.726 177.895C745.726 177.895 748.262 180.537 746.43 181.894C746.43 181.894 741.163 182.898 740.406 179.005C739.648 175.112 741.04 175.869 739.155 170.848C737.27 165.828 742.044 156.562 737.147 153.038C732.25 149.533 730.259 149.022 730.506 147.524C730.752 146.027 727.494 144.019 727.247 143.261C727 142.504 727.617 140.249 726.877 138.998C726.12 137.747 731.14 135.492 730.136 133.854C729.132 132.233 729.132 131.969 726.754 131.846C724.376 131.722 723.248 131.211 722.244 129.837C721.24 128.463 720.606 127.072 719.232 126.702C717.858 126.332 718.598 125.063 716.22 124.94C713.842 124.817 709.455 123.178 709.455 123.178L707.694 121.047C707.694 121.047 705.439 113.031 704.558 112.644C703.678 112.274 705.316 116.66 705.316 116.66L703.554 117.154C703.554 117.154 696.913 103.871 704.682 97.9693C704.682 97.9693 702.673 95.3445 704.188 92.3321C705.686 89.3197 704.558 85.3031 700.806 90.0771C699.961 91.1517 698.904 90.9756 697.759 90.0771C708.733 72.5488 728.216 60.8691 750.429 60.8691L750.376 60.8867Z" fill="url(#paint4_linear_289_8)"/>
<path fill-rule="evenodd" clip-rule="evenodd" d="M784.444 71.0691C801.32 82.1675 812.453 101.264 812.453 122.985C812.453 127.459 811.977 131.811 811.079 136.003L801.567 158.112C800.422 159.768 799.206 161.371 797.903 162.921C798.008 159.785 798.537 155.135 800.474 151.277C803.751 144.776 799.541 143.296 800.228 139.086C800.915 134.876 799.541 133.079 797.744 131.846C795.965 130.613 796.898 133.784 785.995 132.198C775.091 130.613 777.469 114.441 779.547 114.247C781.626 114.053 783.705 110.671 784.55 107.747C785.396 104.822 789.553 105.756 789.553 105.756C789.553 105.756 798.202 101.176 797.832 104.118C797.462 107.059 802.342 109.033 802.342 109.033C802.342 109.033 804.086 107.641 806.904 108.345C809.722 109.033 810.269 117.823 810.867 116.379C811.466 114.934 809.529 109.332 808.19 107.993C806.851 106.654 806.992 100.101 805.213 100.7C803.434 101.299 806.605 103.131 805.266 104.576C803.927 106.02 800.897 100.7 800.263 99.2201C799.611 97.7404 794.714 96.5425 798.484 99.1145C802.254 101.686 800.369 104.065 800.369 104.065C800.369 104.065 799.329 103.818 799.083 102.532C798.836 101.246 795.419 98.6212 794.08 98.4627C792.741 98.3217 790.909 98.5684 790.416 102.233C789.923 105.897 786.84 104.664 783.863 104.364C780.886 104.065 782.419 100.295 782.331 98.5155C782.225 96.7362 785.942 97.529 786.453 96.8243C786.946 96.1373 781.784 92.614 783.722 92.8078C785.66 93.0016 789.43 89.584 789.817 88.5975C790.222 87.6109 793.692 87.9457 793.692 87.9457C797.462 85.955 792.706 82.5903 791.314 82.1851C789.923 81.7799 786.4 73.553 786.558 77.0763C786.699 80.5996 793.058 83.7706 792.706 85.6027C792.354 87.4348 789.888 87.5405 789.888 87.5405C789.888 87.5405 783.088 84.1229 782.947 81.3923C782.806 78.697 783.652 74.5572 784.444 71.0515V71.0691Z" fill="url(#paint5_linear_289_8)"/>
<path fill-rule="evenodd" clip-rule="evenodd" d="M765.226 79.7721C765.226 79.7721 769.013 82.027 769.736 80.3006C770.475 78.5742 764.962 77.94 765.226 79.7721Z" fill="white"/>
<path fill-rule="evenodd" clip-rule="evenodd" d="M778.402 90.6587C778.402 90.6587 777.398 86.5541 779.142 86.1489C780.869 85.7261 785.607 89.0908 785.713 89.8307C785.818 90.5706 784.762 92.3499 782.56 90.782C780.358 89.2142 781.556 87.2587 780.199 88.2629C778.825 89.267 781.362 92.9312 778.42 90.6763L778.402 90.6587Z" fill="white"/>
<path fill-rule="evenodd" clip-rule="evenodd" d="M742.695 95.2213C742.695 95.2213 744.686 93.3363 746.588 94.4814C748.473 95.6441 748.579 95.9083 746.905 96.2078C745.232 96.5249 742.695 95.2037 742.695 95.2037V95.2213Z" fill="white"/>
<path fill-rule="evenodd" clip-rule="evenodd" d="M734.241 80.4588C734.241 80.4588 732.867 82.8722 735.403 82.2909C735.403 82.2909 735.298 84.0702 737.218 83.5769C739.12 83.066 737.993 80.0536 737.993 80.0536C737.993 80.0536 735.086 76.4599 732.743 76.4422C730.4 76.4246 731.915 78.6091 734.241 80.4588Z" fill="white"/>
<path fill-rule="evenodd" clip-rule="evenodd" d="M731.722 121.682C731.722 121.682 735.861 123.021 736.214 120.977C736.566 118.934 730.682 120.079 731.722 121.682Z" fill="white"/>
<path fill-rule="evenodd" clip-rule="evenodd" d="M392.061 671.505C394.802 653.917 382.831 637.416 365.271 634.614C382.87 637.422 399.417 625.405 402.231 607.774C399.489 625.361 411.461 641.863 429.021 644.665C411.422 641.857 394.875 653.874 392.061 671.505Z" fill="white"/>
<path d="M642.5 154.869C340.5 -121.631 -12.8998 -9.53079 69.5002 372.869C172.5 850.869 760 650.369 847.5 621.369" stroke="#00F5D4" stroke-width="3" stroke-miterlimit="1" stroke-linecap="round"/>
<path fill-rule="evenodd" clip-rule="evenodd" d="M708.724 109.652C726.223 176.556 685.649 244.841 618.086 262.17C550.524 279.498 481.567 239.32 464.068 172.415C446.569 105.511 487.143 37.2257 554.705 19.8974C622.268 2.56923 691.225 42.7472 708.724 109.652Z" fill="url(#paint6_linear_289_8)"/>
<path fill-rule="evenodd" clip-rule="evenodd" d="M688.941 214.15C672.302 237.029 647.804 254.534 618.086 262.14C577.038 272.684 535.456 261.964 505.234 236.912C490.701 221.052 479.52 201.11 473.558 178.289C455.674 109.916 491.324 41.6313 553.163 25.7716C615.001 9.91188 679.628 52.4688 697.512 120.842C706.173 153.942 702.287 186.983 688.971 214.121L688.941 214.15Z" fill="url(#paint7_linear_289_8)"/>
<path fill-rule="evenodd" clip-rule="evenodd" d="M675.743 143.985C675.743 143.985 673.222 152.502 677.018 153.06C680.814 153.618 679.242 142.546 675.743 143.985Z" fill="white"/>
<path fill-rule="evenodd" clip-rule="evenodd" d="M664.383 179.376C664.383 179.376 671.946 175.352 673.666 178.524C675.386 181.696 671.175 192.622 669.781 193.18C668.387 193.767 664.323 192.622 666.311 187.511C668.298 182.401 672.746 183.781 670.077 181.637C667.408 179.464 661.446 186.248 664.412 179.376H664.383Z" fill="white"/>
<path opacity="0.4" fill-rule="evenodd" clip-rule="evenodd" d="M712.668 135.968C713.379 152.885 710.591 169.42 704.808 184.751C690.868 206.455 669.395 226.75 641.16 243.197C634.012 247.338 626.686 251.098 619.212 254.505L613.043 247.573C613.043 247.573 640.982 235.208 633.686 235.326C626.39 235.443 614.971 237.969 614.971 237.969C614.971 237.969 612.243 240.466 610.463 239.79C608.683 239.115 606.815 237.441 606.815 237.441C606.815 237.441 600.854 236.56 599.133 238.821C597.413 241.082 582.554 240.701 590.147 234.562C597.739 228.424 604.946 222.286 599.875 216.529C594.803 210.773 595.782 208.511 602.603 207.718C609.425 206.955 625.055 204.84 629.593 209.862C634.131 214.885 649.672 210.538 655.96 205.281C662.247 200.023 663.73 200.405 666.251 205.251C668.772 210.097 671.115 197.85 671.115 197.85C671.115 197.85 678.145 197.086 675.179 193.415C672.213 189.744 682.475 182.871 682.475 182.871C682.475 182.871 687.457 185.133 691.669 180.14C695.881 175.176 693.478 171.535 697.186 169.273C700.893 167.012 704.689 161.255 698.283 163.37C691.906 165.484 693.953 168.421 689.563 167.658C685.174 166.894 686.479 171.623 686.479 171.623C686.479 171.623 682.386 177.438 677.344 179.112C672.331 180.786 672.48 182.725 672.836 183.811C673.192 184.869 670.226 186.601 670.226 186.601L673.607 186.014L673.31 188.951C673.31 188.951 672.925 190.889 669.395 191.917C665.895 192.916 663.79 193.356 663.256 192.299C662.722 191.242 661.565 189.715 663.197 189.01C664.828 188.305 665.451 186.572 664.324 186.19C663.226 185.808 657.294 187.306 661.209 184.898C665.124 182.49 668.15 181.55 665.51 180.904C662.87 180.257 656.049 183.547 661.714 178.76C667.378 173.972 672.213 172.298 671.175 169.479C670.137 166.659 676.306 165.573 669.81 163.282C663.345 160.991 667.26 161.108 659.015 163.722C650.769 166.336 648.159 164.985 648.159 164.985L643.622 165.338C643.622 165.338 639.054 167.658 644.719 171.446C650.354 175.265 651.036 182.196 648.278 183.224C645.52 184.252 638.55 184.545 638.55 184.545L634.072 184.957C634.072 184.957 628.881 186.278 628.97 187.805C629.089 189.333 602.93 191.624 602.633 189.157C602.336 186.689 613.577 178.084 615.802 177.937C618.026 177.79 621.437 171.681 616.484 172.504C611.531 173.326 602.396 174.53 609.989 169.302C617.581 164.075 615.119 162.195 614.111 160.815C613.103 159.464 622.238 151.974 619.657 148.89C617.107 145.807 618.59 135.439 621.941 134.617C625.292 133.824 614.645 128.097 614.645 128.097C614.645 128.097 612.598 126.422 619.598 126.011C626.597 125.6 625.233 128.566 634.754 122.898C644.274 117.259 646.38 109.27 641.101 105.482C635.821 101.693 627.28 101.84 625.055 108.977C622.831 116.114 617.7 107.773 617.7 107.773C617.7 107.773 616.454 102.222 603.701 109.858C603.701 109.858 595.07 108.184 595.396 103.25C595.752 98.3155 582.198 107.949 583.355 109.799C584.512 111.649 581.041 119.374 574.487 120.578C567.903 121.782 555.416 126.628 555.564 128.038C555.713 129.448 540.646 126.188 535.574 130.857C530.503 135.527 513.33 133.383 509.919 130.916C506.509 128.449 500.221 136.555 496.425 136.584C492.658 136.584 481.566 143.398 478.036 142.253C474.507 141.107 459.915 143.31 471.304 133.236C481.536 124.19 465.194 120.372 461.753 119.697C462.643 114.616 463.859 109.623 465.342 104.748C467.507 103.279 470.236 101.664 473.587 99.9602C473.587 99.9602 479.845 96.847 469.287 93.7338C474.952 80.0474 483.019 67.4184 493.132 56.4928C494.467 57.227 496.247 58.0494 498.679 59.048C510.958 64.0702 513.745 84.9816 531.007 83.4837C548.268 81.9565 553.904 79.9006 555.624 82.5733C557.344 85.2165 568.318 83.7187 570.097 84.5117C571.877 85.3046 573.834 89.6514 577.571 90.5031C581.338 91.3548 572.648 101.899 577.601 102.956C582.554 104.043 582.94 104.424 588.901 101.253C594.862 98.0806 598.362 97.2582 602.93 97.9631C607.497 98.6679 611.145 99.9015 615.06 98.5211C618.975 97.1407 619.094 100.136 625.055 96.9645C631.017 93.7926 644.156 90.1213 644.156 90.1213L651.689 90.9143C651.689 90.9143 669.544 100.019 672.242 99.3435C674.941 98.6679 664.235 94.2625 664.235 94.2625L667.705 91.0318C667.705 91.0318 704.304 102.016 694.546 121.988C694.546 121.988 703.473 123.192 704.452 129.917C705.104 134.382 709.286 137.906 712.519 136.056L712.668 135.968Z" fill="#6AA0D6"/>
<path opacity="0.4" fill-rule="evenodd" clip-rule="evenodd" d="M649.523 249.423C639.884 254.916 629.355 259.233 618.085 262.14C592.104 268.807 565.885 266.957 542.484 258.352C543.167 258.146 543.641 257.735 543.819 256.971C545.332 251.479 535.307 256.384 533.913 250.598C532.519 244.812 551.145 246.134 556.009 247.015C560.873 247.896 572.232 237.558 559.301 242.698C546.37 247.837 543.522 239.114 543.522 239.114C543.522 239.114 545.925 236.912 549.602 238.468C553.31 240.025 565.767 235.825 568.436 232.712C571.105 229.599 573.567 224.576 565.084 217.146C556.602 209.745 564.966 204.076 570.779 197.116C576.592 190.126 583.532 200.317 588.248 203.078C592.934 205.838 584.63 213.856 585.549 216.265C586.468 218.673 604.145 211.624 600.378 216.147C596.582 220.67 598.895 235.913 600.734 238.556C602.573 241.2 595.811 249.365 595.811 249.365C594.447 262.17 611.085 255.855 614.466 253.036C617.818 250.216 644.718 255.18 635.524 249.658C626.33 244.107 607.497 254.739 603.433 250.804C599.37 246.839 603.315 240.436 603.315 240.436C603.315 240.436 623.542 229.099 630.72 233.299C636.355 236.589 643.206 243.021 649.553 249.453L649.523 249.423ZM521.575 248.395C528.129 242.433 527.566 235.737 527.566 235.737C527.566 235.737 540.853 226.779 547.675 232.624C554.496 238.468 557.581 209.04 557.581 209.04C557.581 209.04 567.042 200.141 561.051 193.121C555.06 186.073 550.018 175.176 553.043 169.625C556.068 164.045 519.054 130.916 496.513 155.675C473.972 180.433 483.641 183.4 477.442 185.808C474.803 186.836 472.015 187.512 468.96 187.277C479.459 213.504 498.293 234.621 521.545 248.395H521.575Z" fill="#6AA0D6"/>
<path fill-rule="evenodd" clip-rule="evenodd" d="M320.214 262.254L354.069 224.795L371.199 224.863L371.468 168.927L381.026 162.869L381.497 226.343V507.434H320.18L320.214 262.254Z" fill="url(#paint8_linear_289_8)"/>
<path fill-rule="evenodd" clip-rule="evenodd" d="M320.214 262.254L354.069 224.795L354.91 224.762V507.434H320.18L320.214 262.254Z" fill="url(#paint9_linear_289_8)"/>
<path fill-rule="evenodd" clip-rule="evenodd" d="M301.536 383.313L364.872 386.376L365.983 516.32L297.902 519.012L301.536 383.313Z" fill="url(#paint10_linear_289_8)"/>
<path fill-rule="evenodd" clip-rule="evenodd" d="M331.925 384.221L364.872 386.375L365.982 516.319L331.925 517.666V384.221Z" fill="url(#paint11_linear_289_8)"/>
<path fill-rule="evenodd" clip-rule="evenodd" d="M251.594 361.773L307.729 366.788L308.671 517.363L251.09 520.459L251.594 361.773Z" fill="url(#paint12_linear_289_8)"/>
<path fill-rule="evenodd" clip-rule="evenodd" d="M279.897 364.298L307.729 366.788L308.671 517.363L279.897 518.911V364.298Z" fill="url(#paint13_linear_289_8)"/>
<path fill-rule="evenodd" clip-rule="evenodd" d="M269.329 268.211L248.935 231.055L232.411 230.349V511.507H269.363L269.329 268.211Z" fill="url(#paint14_linear_289_8)"/>
<path fill-rule="evenodd" clip-rule="evenodd" d="M269.329 268.211L248.935 231.055L248.43 231.021V511.507H269.363L269.329 268.211Z" fill="url(#paint15_linear_289_8)"/>
<path fill-rule="evenodd" clip-rule="evenodd" d="M421.68 253.638L401.286 213.823L384.762 213.083V514.401H421.713L421.68 253.638Z" fill="url(#paint16_linear_289_8)"/>
<path fill-rule="evenodd" clip-rule="evenodd" d="M421.68 253.638L401.286 213.824L400.781 213.79V514.401H421.713L421.68 253.638Z" fill="url(#paint17_linear_289_8)"/>
<path fill-rule="evenodd" clip-rule="evenodd" d="M181.258 325.627L216.056 296.448L244.291 295.876L244.258 516.69H181.225L181.258 325.627Z" fill="url(#paint18_linear_289_8)"/>
<path fill-rule="evenodd" clip-rule="evenodd" d="M181.258 325.627L216.056 296.447L216.931 296.414V516.689H181.225L181.258 325.627Z" fill="url(#paint19_linear_289_8)"/>
<path fill-rule="evenodd" clip-rule="evenodd" d="M66.0284 426.963C66.0284 426.963 66.3649 370.254 134.312 362.21L142.489 346.258L150.432 362.715C150.432 362.715 209.864 368.47 216.897 424.439V522.848H66.1294L65.288 458.633H45.0286C45.0286 458.633 48.5958 449.546 51.7929 448.705C54.99 447.864 65.9611 448.503 65.9611 448.503L66.0284 426.93V426.963Z" fill="url(#paint20_linear_289_8)"/>
<path fill-rule="evenodd" clip-rule="evenodd" d="M134.312 362.21L142.49 346.258L150.432 362.715L134.312 362.21Z" fill="url(#paint21_linear_289_8)"/>
<path fill-rule="evenodd" clip-rule="evenodd" d="M103.754 426.661V522.882H66.129L66.0281 426.964L103.754 426.661Z" fill="url(#paint22_linear_289_8)"/>
<path fill-rule="evenodd" clip-rule="evenodd" d="M189.167 426.156V522.209H103.989L103.754 426.459L189.167 426.156Z" fill="url(#paint23_linear_289_8)"/>
<path fill-rule="evenodd" clip-rule="evenodd" d="M216.931 426.156V522.209H189.268L189.167 426.459L216.931 426.156Z" fill="url(#paint24_linear_289_8)"/>
<path fill-rule="evenodd" clip-rule="evenodd" d="M216.931 458.667V467.553H65.4227L65.2881 458.667H216.931Z" fill="url(#paint25_linear_289_8)"/>
<path fill-rule="evenodd" clip-rule="evenodd" d="M216.931 448.537V459.038L65.288 458.667H45.0286C45.0286 458.667 48.5958 449.58 51.7929 448.739C53.6102 448.268 57.9852 448.268 61.3842 448.369L65.9611 448.571H216.931V448.537Z" fill="url(#paint26_linear_289_8)"/>
<path fill-rule="evenodd" clip-rule="evenodd" d="M37.8603 509.622C37.8603 509.622 235.07 491.818 275.017 501.309C314.93 510.766 447.66 508.107 468.828 522.512V528.94L0 526.685C0 526.685 16.0191 511.506 37.8603 509.655V509.622Z" fill="#113782"/>
<path fill-rule="evenodd" clip-rule="evenodd" d="M136.432 520.526C136.432 520.526 139.225 503.967 157.768 506.02C176.311 508.107 190.244 491.851 190.244 491.851C190.244 491.851 212.321 469.403 237.931 485.288C263.541 501.174 271.315 489.765 271.315 489.765C271.315 489.765 278.349 484.582 287.839 499.256C297.33 513.929 297.498 495.789 303.421 498.751C309.344 501.679 332.161 520.324 316.95 521.031C301.738 521.737 125.494 524.665 136.432 520.526Z" fill="url(#paint27_linear_289_8)"/>
<path d="M435.174 536.714H67.5089C64.9254 536.714 62.8311 538.809 62.8311 541.392C62.8311 543.976 64.9254 546.07 67.5089 546.07H435.174C437.758 546.07 439.852 543.976 439.852 541.392C439.852 538.809 437.758 536.714 435.174 536.714Z" fill="url(#paint28_linear_289_8)"/>
<path d="M416.093 553.576H84.7399C82.1564 553.576 80.062 555.671 80.062 558.254C80.062 560.838 82.1564 562.932 84.7399 562.932H416.093C418.677 562.932 420.771 560.838 420.771 558.254C420.771 555.671 418.677 553.576 416.093 553.576Z" fill="url(#paint29_linear_289_8)"/>
<path d="M351.445 570.168H148.581C145.997 570.168 143.903 572.262 143.903 574.846C143.903 577.43 145.997 579.524 148.581 579.524H351.445C354.028 579.524 356.122 577.43 356.122 574.846C356.122 572.262 354.028 570.168 351.445 570.168Z" fill="url(#paint30_linear_289_8)"/>
<defs>
<linearGradient id="paint0_linear_289_8" x1="692.585" y1="505.656" x2="787.645" y2="678.547" gradientUnits="userSpaceOnUse">
<stop stop-color="#B9E1ED"/>
<stop offset="1" stop-color="#06358D"/>
</linearGradient>
<linearGradient id="paint1_linear_289_8" x1="683.302" y1="499.822" x2="746.053" y2="669.553" gradientUnits="userSpaceOnUse">
<stop stop-color="white"/>
<stop offset="1" stop-color="#88BBE5"/>
</linearGradient>
<linearGradient id="paint2_linear_289_8" x1="823.507" y1="465.645" x2="858.577" y2="661.018" gradientUnits="userSpaceOnUse">
<stop stop-color="white"/>
<stop offset="1" stop-color="#88BBE5"/>
</linearGradient>
<linearGradient id="paint3_linear_289_8" x1="743.084" y1="90.6761" x2="758.692" y2="159.891" gradientUnits="userSpaceOnUse">
<stop stop-color="white"/>
<stop offset="1" stop-color="#696EB2"/>
</linearGradient>
<linearGradient id="paint4_linear_289_8" x1="756.894" y1="166.938" x2="727.191" y2="77.3591" gradientUnits="userSpaceOnUse">
<stop stop-color="#7F85C0"/>
<stop offset="1" stop-color="white"/>
</linearGradient>
<linearGradient id="paint5_linear_289_8" x1="801.426" y1="146.08" x2="784.566" y2="74.1524" gradientUnits="userSpaceOnUse">
<stop stop-color="#7F85C0"/>
<stop offset="1" stop-color="white"/>
</linearGradient>
<linearGradient id="paint6_linear_289_8" x1="522.793" y1="90.9432" x2="645.236" y2="189.237" gradientUnits="userSpaceOnUse">
<stop stop-color="#735FA7"/>
<stop offset="1" stop-color="white"/>
</linearGradient>
<linearGradient id="paint7_linear_289_8" x1="635.881" y1="98.8145" x2="526.186" y2="203.298" gradientUnits="userSpaceOnUse">
<stop stop-color="#856AAD"/>
<stop offset="1" stop-color="#06358D"/>
</linearGradient>
<linearGradient id="paint8_linear_289_8" x1="351.949" y1="202.381" x2="350.468" y2="451.398" gradientUnits="userSpaceOnUse">
<stop stop-color="#FDFDFE"/>
<stop offset="0.24" stop-color="#D6E1F1"/>
<stop offset="0.76" stop-color="#88A9D6"/>
<stop offset="1" stop-color="#6993CC"/>
</linearGradient>
<linearGradient id="paint9_linear_289_8" x1="337.276" y1="501.04" x2="337.915" y2="225.435" gradientUnits="userSpaceOnUse">
<stop stop-color="#023691"/>
<stop offset="0.26" stop-color="#043892"/>
<stop offset="0.45" stop-color="#0E3E96"/>
<stop offset="0.62" stop-color="#1D4A9D"/>
<stop offset="0.77" stop-color="#345AA7"/>
<stop offset="0.91" stop-color="#506EB4"/>
<stop offset="1" stop-color="#667EBE"/>
</linearGradient>
<linearGradient id="paint10_linear_289_8" x1="332.027" y1="514.031" x2="334.484" y2="389.809" gradientUnits="userSpaceOnUse">
<stop stop-color="#121C3D"/>
<stop offset="1" stop-color="#255DAB"/>
</linearGradient>
<linearGradient id="paint11_linear_289_8" x1="347.473" y1="516.959" x2="350.267" y2="391.255" gradientUnits="userSpaceOnUse">
<stop stop-color="#6993CC"/>
<stop offset="1" stop-color="white"/>
</linearGradient>
<linearGradient id="paint12_linear_289_8" x1="278.046" y1="514.603" x2="282.051" y2="369.447" gradientUnits="userSpaceOnUse">
<stop stop-color="#6993CC"/>
<stop offset="1" stop-color="white"/>
</linearGradient>
<linearGradient id="paint13_linear_289_8" x1="291.911" y1="518.07" x2="296.354" y2="372.476" gradientUnits="userSpaceOnUse">
<stop stop-color="#023691"/>
<stop offset="1" stop-color="#667EBE"/>
</linearGradient>
<linearGradient id="paint14_linear_289_8" x1="249.844" y1="262.624" x2="251.493" y2="465.769" gradientUnits="userSpaceOnUse">
<stop stop-color="#FDFDFE"/>
<stop offset="0.24" stop-color="#D6E1F1"/>
<stop offset="0.76" stop-color="#88A9D6"/>
<stop offset="1" stop-color="#6993CC"/>
</linearGradient>
<linearGradient id="paint15_linear_289_8" x1="259.301" y1="505.179" x2="258.291" y2="231.695" gradientUnits="userSpaceOnUse">
<stop stop-color="#023691"/>
<stop offset="0.26" stop-color="#043892"/>
<stop offset="0.45" stop-color="#0E3E96"/>
<stop offset="0.62" stop-color="#1D4A9D"/>
<stop offset="0.77" stop-color="#345AA7"/>
<stop offset="0.91" stop-color="#506EB4"/>
<stop offset="1" stop-color="#667EBE"/>
</linearGradient>
<linearGradient id="paint16_linear_289_8" x1="402.06" y1="247.647" x2="403.944" y2="465.365" gradientUnits="userSpaceOnUse">
<stop stop-color="#FDFDFE"/>
<stop offset="0.24" stop-color="#D6E1F1"/>
<stop offset="0.76" stop-color="#88A9D6"/>
<stop offset="1" stop-color="#6993CC"/>
</linearGradient>
<linearGradient id="paint17_linear_289_8" x1="411.718" y1="507.603" x2="410.574" y2="214.53" gradientUnits="userSpaceOnUse">
<stop stop-color="#023691"/>
<stop offset="0.26" stop-color="#043892"/>
<stop offset="0.45" stop-color="#0E3E96"/>
<stop offset="0.62" stop-color="#1D4A9D"/>
<stop offset="0.77" stop-color="#345AA7"/>
<stop offset="0.91" stop-color="#506EB4"/>
<stop offset="1" stop-color="#667EBE"/>
</linearGradient>
<linearGradient id="paint18_linear_289_8" x1="211.479" y1="463.11" x2="216.763" y2="291.03" gradientUnits="userSpaceOnUse">
<stop stop-color="#121C3D"/>
<stop offset="0.23" stop-color="#121D40"/>
<stop offset="0.41" stop-color="#14234A"/>
<stop offset="0.58" stop-color="#172D5B"/>
<stop offset="0.74" stop-color="#1B3B72"/>
<stop offset="0.9" stop-color="#204D91"/>
<stop offset="1" stop-color="#255DAB"/>
</linearGradient>
<linearGradient id="paint19_linear_289_8" x1="199.162" y1="408.049" x2="199.768" y2="292.308" gradientUnits="userSpaceOnUse">
<stop stop-color="#6993CC"/>
<stop offset="0.16" stop-color="#7BA0D2"/>
<stop offset="0.5" stop-color="#ABC2E2"/>
<stop offset="0.96" stop-color="#F8FAFC"/>
<stop offset="1" stop-color="white"/>
</linearGradient>
<linearGradient id="paint20_linear_289_8" x1="198.926" y1="477.952" x2="127.748" y2="445.342" gradientUnits="userSpaceOnUse">
<stop stop-color="#7895CC"/>
<stop offset="1" stop-color="white"/>
</linearGradient>
<linearGradient id="paint21_linear_289_8" x1="142.523" y1="358.71" x2="143.297" y2="341.277" gradientUnits="userSpaceOnUse">
<stop stop-color="#213987"/>
<stop offset="1" stop-color="#000512"/>
</linearGradient>
<linearGradient id="paint22_linear_289_8" x1="87.2298" y1="477.346" x2="46.4054" y2="431.443" gradientUnits="userSpaceOnUse">
<stop stop-color="#7484BB"/>
<stop offset="0.15" stop-color="#7888BD"/>
<stop offset="0.33" stop-color="#8694C4"/>
<stop offset="0.51" stop-color="#9DA8CF"/>
<stop offset="0.7" stop-color="#BDC4DE"/>
<stop offset="0.9" stop-color="#E5E8F2"/>
<stop offset="1" stop-color="white"/>
</linearGradient>
<linearGradient id="paint23_linear_289_8" x1="145.956" y1="460.249" x2="143.027" y2="394.116" gradientUnits="userSpaceOnUse">
<stop stop-color="#183994"/>
<stop offset="1" stop-color="white"/>
</linearGradient>
<linearGradient id="paint24_linear_289_8" x1="205.489" y1="491.919" x2="194.247" y2="409.026" gradientUnits="userSpaceOnUse">
<stop stop-color="#060E2B"/>
<stop offset="0.14" stop-color="#09112E"/>
<stop offset="0.26" stop-color="#151C37"/>
<stop offset="0.39" stop-color="#282E48"/>
<stop offset="0.51" stop-color="#42485E"/>
<stop offset="0.63" stop-color="#656A7C"/>
<stop offset="0.75" stop-color="#8F93A0"/>
<stop offset="0.87" stop-color="#C1C3CA"/>
<stop offset="0.99" stop-color="#FAFAFA"/>
<stop offset="1" stop-color="white"/>
</linearGradient>
<linearGradient id="paint25_linear_289_8" x1="141.211" y1="464.793" x2="139.965" y2="424.675" gradientUnits="userSpaceOnUse">
<stop stop-color="#040C24"/>
<stop offset="1" stop-color="white"/>
</linearGradient>
<linearGradient id="paint26_linear_289_8" x1="224.671" y1="453.013" x2="29.1777" y2="454.494" gradientUnits="userSpaceOnUse">
<stop stop-color="#ECF0F6"/>
<stop offset="1" stop-color="#7484BB"/>
</linearGradient>
<linearGradient id="paint27_linear_289_8" x1="229.114" y1="516.521" x2="230.224" y2="484.346" gradientUnits="userSpaceOnUse">
<stop stop-color="#18583E"/>
<stop offset="0.11" stop-color="#276243"/>
<stop offset="0.33" stop-color="#4F7F50"/>
<stop offset="0.64" stop-color="#90AD66"/>
<stop offset="1" stop-color="#E6EA83"/>
</linearGradient>
<linearGradient id="paint28_linear_289_8" x1="252.233" y1="517.16" x2="250.248" y2="572.019" gradientUnits="userSpaceOnUse">
<stop stop-color="#F5F8FD"/>
<stop offset="1" stop-color="#627ABB"/>
</linearGradient>
<linearGradient id="paint29_linear_289_8" x1="251.897" y1="517.43" x2="249.911" y2="572.255" gradientUnits="userSpaceOnUse">
<stop stop-color="#F5F8FD"/>
<stop offset="1" stop-color="#627ABB"/>
</linearGradient>
<linearGradient id="paint30_linear_289_8" x1="252.065" y1="517.935" x2="250.08" y2="572.524" gradientUnits="userSpaceOnUse">
<stop stop-color="#F5F8FD"/>
<stop offset="1" stop-color="#627ABB"/>
</linearGradient>
</defs>
</svg>
