<svg width="2240" height="104" viewBox="0 0 2240 104" fill="none" xmlns="http://www.w3.org/2000/svg">
<path fill-rule="evenodd" clip-rule="evenodd" d="M259.736 47.5179C259.736 47.5179 270.907 31.0209 299.18 32.6752C299.18 32.6752 301.858 7.91552 332.188 11.9262C362.517 15.9368 380.479 20.6719 380.479 20.6719C380.479 20.6719 404.536 28.3291 405.937 50.4492C405.937 50.4492 432.733 60.0232 439.977 78.5664C439.977 78.5664 439.15 92.1629 379.693 83.521C379.693 83.521 378.696 92.5249 369.482 91.2145C360.257 89.8863 327.83 84.3233 327.83 84.3233C327.83 84.3233 318.418 82.1044 318.948 71.8915C318.948 71.8915 266.188 65.1777 259.725 47.5L259.736 47.5179Z" fill="url(#paint0_linear_217_373)"/>
<path fill-rule="evenodd" clip-rule="evenodd" d="M260.217 46.8848C260.388 46.6596 260.615 46.3966 260.887 46.0933C266.593 42.2225 306.114 44.6615 352.277 52.5811C398.441 60.5007 431.702 70.4683 438.996 76.3469C439.36 77.077 439.693 77.834 439.987 78.5998C439.987 78.5998 439.962 78.9295 439.706 79.4421C434.305 84.081 395.986 87.0954 349.719 79.1581C338.923 77.3059 328.549 74.9856 318.939 72.4306C318.944 72.2724 318.951 72.0987 318.958 71.925C318.958 71.925 317.442 71.7284 314.884 71.3215C282.5 62.2994 259.71 50.948 260.157 47.0653C260.164 47.0029 260.169 46.9561 260.202 46.8982L260.217 46.8848Z" fill="#8590C7"/>
<path fill-rule="evenodd" clip-rule="evenodd" d="M309.853 46.6863C309.853 46.6863 309.941 67.182 318.972 71.9116C318.972 71.9116 346.837 62.9375 380.43 83.6316C380.43 83.6316 388.235 78.785 392.342 60.6946C378.574 57.9193 364.821 55.1306 351.054 52.3552L313.262 46.6669L309.855 46.6707L309.853 46.6863Z" fill="#363F96"/>
<path fill-rule="evenodd" clip-rule="evenodd" d="M381.154 83.7399C380.677 83.658 380.196 83.6073 379.704 83.5389C379.704 83.5389 378.707 92.5428 369.493 91.2324C360.268 89.9041 327.841 84.3412 327.841 84.3412C327.841 84.3412 318.532 82.1399 318.955 72.0675C325.417 70.314 351.543 65.017 381.139 83.7533L381.154 83.7399Z" fill="url(#paint1_linear_217_373)"/>
<path fill-rule="evenodd" clip-rule="evenodd" d="M302.839 57.2339C304.683 57.5503 306.266 57.1699 306.356 56.3902C306.445 55.6106 305.01 54.7124 303.165 54.3959C301.321 54.0795 299.738 54.4599 299.649 55.2396C299.559 56.0193 300.994 56.9175 302.839 57.2339Z" fill="#3F3B3A"/>
<path fill-rule="evenodd" clip-rule="evenodd" d="M397.229 72.7433C399.074 73.0597 400.656 72.6793 400.746 71.8996C400.836 71.12 399.4 70.2218 397.556 69.9053C395.711 69.5889 394.129 69.9693 394.039 70.749C393.949 71.5286 395.385 72.4269 397.229 72.7433Z" fill="#231916"/>
<path fill-rule="evenodd" clip-rule="evenodd" d="M2054.15 48.4109C2054.15 48.4109 2065.32 31.914 2093.59 33.5682C2093.59 33.5682 2096.27 8.80859 2126.6 12.8193C2156.93 16.8299 2174.89 21.565 2174.89 21.565C2174.89 21.565 2198.95 29.2222 2200.35 51.3423C2200.35 51.3423 2227.14 60.9163 2234.39 79.4595C2234.39 79.4595 2233.56 93.0559 2174.1 84.4141C2174.1 84.4141 2173.11 93.418 2163.89 92.1076C2154.67 90.7794 2122.24 85.2164 2122.24 85.2164C2122.24 85.2164 2112.83 82.9974 2113.36 72.7846C2113.36 72.7846 2060.6 66.0707 2054.14 48.3931L2054.15 48.4109Z" fill="url(#paint2_linear_217_373)"/>
<path fill-rule="evenodd" clip-rule="evenodd" d="M2054.63 47.7778C2054.8 47.5527 2055.03 47.2896 2055.3 46.9864C2061 43.1156 2100.53 45.5545 2146.69 53.4741C2192.85 61.3937 2226.11 71.3614 2233.41 77.24C2233.77 77.9701 2234.1 78.727 2234.4 79.4929C2234.4 79.4929 2234.37 79.8226 2234.12 80.3351C2228.72 84.974 2190.4 87.9884 2144.13 80.0511C2133.33 78.199 2122.96 75.8787 2113.35 73.3236C2113.36 73.1655 2113.36 72.9918 2113.37 72.818C2113.37 72.818 2111.85 72.6215 2109.3 72.2145C2076.91 63.1925 2054.12 51.841 2054.57 47.9583C2054.58 47.896 2054.58 47.8492 2054.61 47.7912L2054.63 47.7778Z" fill="#8590C7"/>
<path fill-rule="evenodd" clip-rule="evenodd" d="M2104.26 47.5794C2104.26 47.5794 2104.35 68.0751 2113.38 72.8046C2113.38 72.8046 2141.25 63.8306 2174.84 84.5246C2174.84 84.5246 2182.65 79.6781 2186.75 61.5877C2172.99 58.8123 2159.23 56.0236 2145.47 53.2483L2107.67 47.56L2104.27 47.5638L2104.26 47.5794Z" fill="#363F96"/>
<path fill-rule="evenodd" clip-rule="evenodd" d="M2175.57 84.633C2175.09 84.5511 2174.61 84.5004 2174.12 84.4319C2174.12 84.4319 2173.12 93.4359 2163.9 92.1254C2154.68 90.7972 2122.25 85.2342 2122.25 85.2342C2122.25 85.2342 2112.94 83.033 2113.37 72.9606C2119.83 71.2071 2145.96 65.9101 2175.55 84.6464L2175.57 84.633Z" fill="url(#paint3_linear_217_373)"/>
<path fill-rule="evenodd" clip-rule="evenodd" d="M2097.25 58.127C2099.09 58.4434 2100.68 58.063 2100.77 57.2833C2100.86 56.5036 2099.42 55.6054 2097.58 55.289C2095.73 54.9726 2094.15 55.353 2094.06 56.1327C2093.97 56.9123 2095.41 57.8105 2097.25 58.127Z" fill="#3F3B3A"/>
<path fill-rule="evenodd" clip-rule="evenodd" d="M2191.64 73.6364C2193.49 73.9528 2195.07 73.5724 2195.16 72.7927C2195.25 72.013 2193.81 71.1148 2191.97 70.7984C2190.12 70.482 2188.54 70.8624 2188.45 71.642C2188.36 72.4217 2189.8 73.3199 2191.64 73.6364Z" fill="#231916"/>
<path fill-rule="evenodd" clip-rule="evenodd" d="M712.535 47.5176C712.535 47.5176 723.706 31.0207 751.978 32.6749C751.978 32.6749 754.656 7.91528 784.986 11.9259C815.316 15.9366 833.277 20.6717 833.277 20.6717C833.277 20.6717 857.334 28.3289 858.735 50.449C858.735 50.449 885.531 60.023 892.776 78.5662C892.776 78.5662 891.948 92.1626 832.491 83.5208C832.491 83.5208 831.494 92.5247 822.28 91.2143C813.055 89.886 780.628 84.3231 780.628 84.3231C780.628 84.3231 771.216 82.1041 771.747 71.8913C771.747 71.8913 718.987 65.1774 712.524 47.4998L712.535 47.5176Z" fill="url(#paint4_linear_217_373)"/>
<path fill-rule="evenodd" clip-rule="evenodd" d="M713.015 46.8845C713.186 46.6594 713.414 46.3963 713.685 46.0931C719.392 42.2223 758.912 44.6612 805.075 52.5808C851.239 60.5004 884.5 70.4681 891.795 76.3466C892.158 77.0768 892.492 77.8337 892.785 78.5996C892.785 78.5996 892.76 78.9293 892.504 79.4418C887.104 84.0807 848.784 87.0951 802.517 79.1578C791.721 77.3057 781.348 74.9854 771.737 72.4303C771.742 72.2722 771.749 72.0985 771.756 71.9247C771.756 71.9247 770.24 71.7282 767.682 71.3212C735.299 62.2992 712.508 50.9477 712.955 47.065C712.962 47.0026 712.968 46.9559 713.001 46.8979L713.015 46.8845Z" fill="#8590C7"/>
<path fill-rule="evenodd" clip-rule="evenodd" d="M762.651 46.6861C762.651 46.6861 762.74 67.1818 771.771 71.9113C771.771 71.9113 799.635 62.9373 833.228 83.6313C833.228 83.6313 841.033 78.7848 845.14 60.6944C831.372 57.919 817.619 55.1303 803.852 52.355L766.06 46.6667L762.653 46.6705L762.651 46.6861Z" fill="#363F96"/>
<path fill-rule="evenodd" clip-rule="evenodd" d="M833.952 83.7397C833.475 83.6578 832.994 83.6071 832.502 83.5386C832.502 83.5386 831.506 92.5425 822.291 91.2321C813.066 89.9039 780.64 84.3409 780.64 84.3409C780.64 84.3409 771.331 82.1397 771.753 72.0673C778.215 70.3138 804.342 65.0168 833.937 83.753L833.952 83.7397Z" fill="url(#paint5_linear_217_373)"/>
<path fill-rule="evenodd" clip-rule="evenodd" d="M755.637 57.2337C757.482 57.5501 759.064 57.1697 759.154 56.39C759.244 55.6103 757.808 54.7121 755.964 54.3957C754.119 54.0793 752.537 54.4597 752.447 55.2394C752.357 56.019 753.793 56.9172 755.637 57.2337Z" fill="#3F3B3A"/>
<path fill-rule="evenodd" clip-rule="evenodd" d="M850.028 72.7431C851.872 73.0595 853.455 72.679 853.544 71.8994C853.634 71.1197 852.199 70.2215 850.354 69.9051C848.51 69.5887 846.927 69.9691 846.837 70.7487C846.748 71.5284 848.183 72.4266 850.028 72.7431Z" fill="#231916"/>
<path fill-rule="evenodd" clip-rule="evenodd" d="M1165.33 47.5176C1165.33 47.5176 1176.5 31.0207 1204.77 32.6749C1204.77 32.6749 1207.45 7.91528 1237.78 11.9259C1268.11 15.9366 1286.07 20.6717 1286.07 20.6717C1286.07 20.6717 1310.13 28.3289 1311.53 50.449C1311.53 50.449 1338.33 60.023 1345.57 78.5662C1345.57 78.5662 1344.74 92.1626 1285.29 83.5208C1285.29 83.5208 1284.29 92.5247 1275.08 91.2143C1265.85 89.886 1233.42 84.3231 1233.42 84.3231C1233.42 84.3231 1224.01 82.1041 1224.54 71.8913C1224.54 71.8913 1171.78 65.1774 1165.32 47.4998L1165.33 47.5176Z" fill="url(#paint6_linear_217_373)"/>
<path fill-rule="evenodd" clip-rule="evenodd" d="M1165.81 46.8845C1165.98 46.6594 1166.21 46.3963 1166.48 46.0931C1172.19 42.2223 1211.71 44.6612 1257.87 52.5808C1304.03 60.5004 1337.3 70.4681 1344.59 76.3466C1344.95 77.0768 1345.29 77.8337 1345.58 78.5996C1345.58 78.5996 1345.56 78.9293 1345.3 79.4418C1339.9 84.0807 1301.58 87.0951 1255.31 79.1578C1244.52 77.3057 1234.14 74.9854 1224.53 72.4303C1224.54 72.2722 1224.55 72.0985 1224.55 71.9247C1224.55 71.9247 1223.04 71.7282 1220.48 71.3212C1188.09 62.2992 1165.3 50.9477 1165.75 47.065C1165.76 47.0026 1165.76 46.9559 1165.8 46.8979L1165.81 46.8845Z" fill="#8590C7"/>
<path fill-rule="evenodd" clip-rule="evenodd" d="M1215.45 46.6861C1215.45 46.6861 1215.54 67.1818 1224.57 71.9113C1224.57 71.9113 1252.43 62.9373 1286.02 83.6313C1286.02 83.6313 1293.83 78.7848 1297.94 60.6944C1284.17 57.919 1270.42 55.1303 1256.65 52.355L1218.86 46.6667L1215.45 46.6705L1215.45 46.6861Z" fill="#363F96"/>
<path fill-rule="evenodd" clip-rule="evenodd" d="M1286.75 83.7397C1286.27 83.6578 1285.79 83.6071 1285.3 83.5386C1285.3 83.5386 1284.3 92.5425 1275.09 91.2321C1265.86 89.9039 1233.44 84.3409 1233.44 84.3409C1233.44 84.3409 1224.13 82.1397 1224.55 72.0673C1231.01 70.3138 1257.14 65.0168 1286.73 83.753L1286.75 83.7397Z" fill="url(#paint7_linear_217_373)"/>
<path fill-rule="evenodd" clip-rule="evenodd" d="M1208.43 57.2337C1210.28 57.5501 1211.86 57.1697 1211.95 56.39C1212.04 55.6103 1210.6 54.7121 1208.76 54.3957C1206.92 54.0793 1205.33 54.4597 1205.24 55.2394C1205.15 56.019 1206.59 56.9172 1208.43 57.2337Z" fill="#3F3B3A"/>
<path fill-rule="evenodd" clip-rule="evenodd" d="M1302.82 72.7431C1304.67 73.0595 1306.25 72.679 1306.34 71.8994C1306.43 71.1197 1304.99 70.2215 1303.15 69.9051C1301.31 69.5887 1299.72 69.9691 1299.63 70.7487C1299.54 71.5284 1300.98 72.4266 1302.82 72.7431Z" fill="#231916"/>
<path fill-rule="evenodd" clip-rule="evenodd" d="M1618.13 47.5176C1618.13 47.5176 1629.3 31.0207 1657.57 32.6749C1657.57 32.6749 1660.25 7.91528 1690.58 11.9259C1720.91 15.9366 1738.87 20.6717 1738.87 20.6717C1738.87 20.6717 1762.93 28.3289 1764.33 50.449C1764.33 50.449 1791.12 60.023 1798.37 78.5662C1798.37 78.5662 1797.54 92.1626 1738.08 83.5208C1738.08 83.5208 1737.09 92.5247 1727.87 91.2143C1718.65 89.886 1686.22 84.3231 1686.22 84.3231C1686.22 84.3231 1676.81 82.1041 1677.34 71.8913C1677.34 71.8913 1624.58 65.1774 1618.12 47.4998L1618.13 47.5176Z" fill="url(#paint8_linear_217_373)"/>
<path fill-rule="evenodd" clip-rule="evenodd" d="M1618.61 46.8845C1618.78 46.6594 1619.01 46.3963 1619.28 46.0931C1624.99 42.2223 1664.51 44.6612 1710.67 52.5808C1756.83 60.5004 1790.09 70.4681 1797.39 76.3466C1797.75 77.0768 1798.09 77.8337 1798.38 78.5996C1798.38 78.5996 1798.35 78.9293 1798.1 79.4418C1792.7 84.0807 1754.38 87.0951 1708.11 79.1578C1697.32 77.3057 1686.94 74.9854 1677.33 72.4303C1677.34 72.2722 1677.34 72.0985 1677.35 71.9247C1677.35 71.9247 1675.83 71.7282 1673.28 71.3212C1640.89 62.2992 1618.1 50.9477 1618.55 47.065C1618.56 47.0026 1618.56 46.9559 1618.59 46.8979L1618.61 46.8845Z" fill="#8590C7"/>
<path fill-rule="evenodd" clip-rule="evenodd" d="M1668.25 46.6861C1668.25 46.6861 1668.33 67.1818 1677.36 71.9113C1677.36 71.9113 1705.23 62.9373 1738.82 83.6313C1738.82 83.6313 1746.63 78.7848 1750.73 60.6944C1736.97 57.919 1723.21 55.1303 1709.45 52.355L1671.65 46.6667L1668.25 46.6705L1668.25 46.6861Z" fill="#363F96"/>
<path fill-rule="evenodd" clip-rule="evenodd" d="M1739.55 83.7397C1739.07 83.6578 1738.59 83.6071 1738.1 83.5386C1738.1 83.5386 1737.1 92.5425 1727.89 91.2321C1718.66 89.9039 1686.23 84.3409 1686.23 84.3409C1686.23 84.3409 1676.92 82.1397 1677.35 72.0673C1683.81 70.3138 1709.94 65.0168 1739.53 83.753L1739.55 83.7397Z" fill="url(#paint9_linear_217_373)"/>
<path fill-rule="evenodd" clip-rule="evenodd" d="M1661.23 57.2337C1663.08 57.5501 1664.66 57.1697 1664.75 56.39C1664.84 55.6103 1663.4 54.7121 1661.56 54.3957C1659.71 54.0793 1658.13 54.4597 1658.04 55.2394C1657.95 56.019 1659.39 56.9172 1661.23 57.2337Z" fill="#3F3B3A"/>
<path fill-rule="evenodd" clip-rule="evenodd" d="M1755.62 72.7431C1757.47 73.0595 1759.05 72.679 1759.14 71.8994C1759.23 71.1197 1757.79 70.2215 1755.95 69.9051C1754.1 69.5887 1752.52 69.9691 1752.43 70.7487C1752.34 71.5284 1753.78 72.4266 1755.62 72.7431Z" fill="#231916"/>
<path d="M2 51.2629H181.42" stroke="white" stroke-width="4" stroke-linecap="round"/>
<path d="M454.799 51.2627H634.219" stroke="white" stroke-width="4" stroke-linecap="round"/>
<path d="M907.596 51.2627H1087.02" stroke="white" stroke-width="4" stroke-linecap="round"/>
<path d="M1360.39 51.2627H1539.81" stroke="white" stroke-width="4" stroke-linecap="round"/>
<path d="M1813.19 51.2629H1992.61" stroke="white" stroke-width="4" stroke-linecap="round"/>
<path d="M219.278 29.5981C219.535 28.9297 220.361 29.2646 220.24 29.9878L219.222 36.054C217.907 43.8871 221.159 51.8002 227.088 55.1944L231.679 57.8229C232.227 58.1364 231.952 59.1459 231.36 58.9977L226.392 57.7542C219.977 56.1485 213.497 60.1194 210.717 67.3592L208.565 72.966C208.308 73.6344 207.481 73.2995 207.603 72.5763L208.621 66.5101C209.936 58.677 206.684 50.764 200.755 47.3697L196.163 44.7412C195.616 44.4277 195.89 43.4182 196.482 43.5664L201.45 44.8099C207.865 46.4157 214.346 42.4447 217.125 35.2049L219.278 29.5981Z" fill="white"/>
<path d="M672.077 29.5983C672.333 28.93 673.16 29.2649 673.039 29.988L672.02 36.0542C670.705 43.8874 673.957 51.8004 679.886 55.1946L684.478 57.8232C685.025 58.1366 684.751 59.1462 684.159 58.998L679.191 57.7544C672.776 56.1487 666.296 60.1196 663.516 67.3594L661.363 72.9662C661.107 73.6346 660.28 73.2998 660.401 72.5765L661.42 66.5103C662.735 58.6772 659.483 50.7642 653.554 47.37L648.962 44.7414C648.415 44.428 648.689 43.4184 649.281 43.5666L654.249 44.8101C660.664 46.4159 667.144 42.445 669.924 35.2051L672.077 29.5983Z" fill="white"/>
<path d="M1124.87 29.5983C1125.13 28.93 1125.96 29.2649 1125.83 29.988L1124.82 36.0542C1123.5 43.8874 1126.75 51.8004 1132.68 55.1946L1137.27 57.8232C1137.82 58.1366 1137.55 59.1462 1136.95 58.998L1131.99 57.7544C1125.57 56.1487 1119.09 60.1196 1116.31 67.3594L1114.16 72.9662C1113.9 73.6346 1113.08 73.2998 1113.2 72.5765L1114.22 66.5103C1115.53 58.6772 1112.28 50.7642 1106.35 47.37L1101.76 44.7414C1101.21 44.428 1101.48 43.4184 1102.08 43.5666L1107.05 44.8101C1113.46 46.4159 1119.94 42.445 1122.72 35.2051L1124.87 29.5983Z" fill="white"/>
<path d="M1577.67 29.5983C1577.93 28.93 1578.75 29.2649 1578.63 29.988L1577.61 36.0542C1576.3 43.8874 1579.55 51.8004 1585.48 55.1946L1590.07 57.8232C1590.62 58.1366 1590.35 59.1462 1589.75 58.998L1584.79 57.7544C1578.37 56.1487 1571.89 60.1196 1569.11 67.3594L1566.96 72.9662C1566.7 73.6346 1565.87 73.2998 1566 72.5765L1567.01 66.5103C1568.33 58.6772 1565.08 50.7642 1559.15 47.37L1554.56 44.7414C1554.01 44.428 1554.28 43.4184 1554.88 43.5666L1559.84 44.8101C1566.26 46.4159 1572.74 42.445 1575.52 35.2051L1577.67 29.5983Z" fill="white"/>
<path d="M2030.47 29.5981C2030.73 28.9297 2031.55 29.2646 2031.43 29.9878L2030.41 36.054C2029.1 43.8871 2032.35 51.8002 2038.28 55.1944L2042.87 57.8229C2043.42 58.1364 2043.14 59.1459 2042.55 58.9977L2037.58 57.7542C2031.17 56.1485 2024.69 60.1194 2021.91 67.3592L2019.76 72.966C2019.5 73.6344 2018.67 73.2995 2018.79 72.5763L2019.81 66.5101C2021.13 58.677 2017.88 50.764 2011.95 47.3697L2007.36 44.7412C2006.81 44.4277 2007.08 43.4182 2007.67 43.5664L2012.64 44.8099C2019.06 46.4157 2025.54 42.4447 2028.32 35.2049L2030.47 29.5981Z" fill="white"/>
<defs>
<linearGradient id="paint0_linear_217_373" x1="354.214" y1="83.3626" x2="337.275" y2="28.7189" gradientUnits="userSpaceOnUse">
<stop stop-color="#8590C7"/>
<stop offset="1" stop-color="white"/>
</linearGradient>
<linearGradient id="paint1_linear_217_373" x1="357.677" y1="-19.6406" x2="349.078" y2="85.0756" gradientUnits="userSpaceOnUse">
<stop stop-color="#363F96"/>
<stop offset="1" stop-color="white"/>
</linearGradient>
<linearGradient id="paint2_linear_217_373" x1="2148.63" y1="84.2557" x2="2131.69" y2="29.612" gradientUnits="userSpaceOnUse">
<stop stop-color="#8590C7"/>
<stop offset="1" stop-color="white"/>
</linearGradient>
<linearGradient id="paint3_linear_217_373" x1="2152.09" y1="-18.7476" x2="2143.49" y2="85.9687" gradientUnits="userSpaceOnUse">
<stop stop-color="#363F96"/>
<stop offset="1" stop-color="white"/>
</linearGradient>
<linearGradient id="paint4_linear_217_373" x1="807.012" y1="83.3624" x2="790.074" y2="28.7187" gradientUnits="userSpaceOnUse">
<stop stop-color="#8590C7"/>
<stop offset="1" stop-color="white"/>
</linearGradient>
<linearGradient id="paint5_linear_217_373" x1="810.475" y1="-19.6409" x2="801.877" y2="85.0754" gradientUnits="userSpaceOnUse">
<stop stop-color="#363F96"/>
<stop offset="1" stop-color="white"/>
</linearGradient>
<linearGradient id="paint6_linear_217_373" x1="1259.81" y1="83.3624" x2="1242.87" y2="28.7187" gradientUnits="userSpaceOnUse">
<stop stop-color="#8590C7"/>
<stop offset="1" stop-color="white"/>
</linearGradient>
<linearGradient id="paint7_linear_217_373" x1="1263.27" y1="-19.6409" x2="1254.67" y2="85.0754" gradientUnits="userSpaceOnUse">
<stop stop-color="#363F96"/>
<stop offset="1" stop-color="white"/>
</linearGradient>
<linearGradient id="paint8_linear_217_373" x1="1712.61" y1="83.3624" x2="1695.67" y2="28.7187" gradientUnits="userSpaceOnUse">
<stop stop-color="#8590C7"/>
<stop offset="1" stop-color="white"/>
</linearGradient>
<linearGradient id="paint9_linear_217_373" x1="1716.07" y1="-19.6409" x2="1707.47" y2="85.0754" gradientUnits="userSpaceOnUse">
<stop stop-color="#363F96"/>
<stop offset="1" stop-color="white"/>
</linearGradient>
</defs>
</svg>
